<svg width="131" height="130" viewBox="0 0 131 130" fill="none" xmlns="http://www.w3.org/2000/svg">
<g clip-path="url(#clip0_418_90)">
<path d="M39.0954 76.4715C34.0673 71.0958 25.4213 73.1616 23.0323 79.7898C22.0748 78.7374 19.6177 76.0297 19.5487 75.9604C19.0028 75.4145 18.7019 74.6883 18.7019 73.916V43.323C18.7019 38.3942 14.6919 34.3843 9.76311 34.3843C4.83428 34.3843 0.824341 38.3942 0.824341 43.323V86.6631C0.824341 89.3926 1.88745 91.9585 3.81713 93.8887C3.89153 93.9631 2.8269 92.9841 19.8328 108.558C20.7811 109.525 21.3029 110.801 21.3029 112.157V127.454C21.3029 128.856 22.4399 129.993 23.842 129.993H54.3518C55.7539 129.993 56.8909 128.856 56.8909 127.454V96.4984C56.8909 95.8542 56.6461 95.2342 56.2061 94.7639L39.0954 76.4715ZM51.8128 124.915H26.381V112.158C26.381 109.428 25.3184 106.862 23.3882 104.932C23.3034 104.847 23.8998 105.399 7.37258 90.2624C6.42424 89.2956 5.90247 88.0197 5.90247 86.6633V43.323C5.90247 41.1943 7.63436 39.4624 9.76311 39.4624C11.8919 39.4624 13.6235 41.1943 13.6235 43.323V73.916C13.6235 76.0046 14.4231 77.9693 15.8746 79.4643C18.2169 82.0417 30.0403 95.0524 32.3961 97.6448C33.3408 98.684 34.9465 98.7579 35.9827 97.8162C37.0205 96.8731 37.0974 95.2674 36.1541 94.2295L28.4344 85.7343C26.9886 83.7927 27.3189 81.0139 29.2692 79.4768C31.1341 78.0064 33.7641 78.2055 35.3868 79.9401L51.8128 97.5005V124.915Z" fill="url(#paint0_linear_418_90)"/>
<path d="M121.886 34.3843C116.957 34.3843 112.947 38.3942 112.947 43.323V73.916C112.947 74.6883 112.646 75.4143 112.1 75.9604C112.035 76.0259 109.267 79.0748 108.617 79.7898C106.228 73.1621 97.5819 71.0961 92.5535 76.4715L75.4425 94.7639C75.0025 95.2342 74.7578 95.8542 74.7578 96.4984V127.454C74.7578 128.856 75.8947 129.993 77.2968 129.993H107.807C109.209 129.993 110.346 128.856 110.346 127.454V112.158C110.346 110.801 110.868 109.525 111.816 108.558C128.634 93.1562 127.757 93.9639 127.832 93.889C129.761 91.9588 130.824 89.3928 130.824 86.6633V43.323C130.824 38.3942 126.814 34.3843 121.886 34.3843ZM125.746 86.6633C125.746 88.0197 125.224 89.2956 124.276 90.2624C107.676 105.465 108.341 104.851 108.26 104.932C106.33 106.862 105.268 109.428 105.268 112.158V124.915H79.8359V97.5008L96.2618 79.9404C97.8843 78.2065 100.514 78.0069 102.379 79.477C104.327 81.0119 104.662 83.7899 103.214 85.7345L95.4943 94.2297C94.551 95.2677 94.6279 96.8734 95.6657 97.8164C96.7031 98.7592 98.3091 98.6832 99.2523 97.645C101.642 95.0158 113.446 82.026 115.774 79.4646C117.225 77.9696 118.025 76.0046 118.025 73.9162V43.323C118.025 41.1943 119.757 39.4624 121.886 39.4624C124.014 39.4624 125.746 41.1946 125.746 43.323V86.6633Z" fill="url(#paint1_linear_418_90)"/>
<path d="M86.9846 23.353H81.1209C79.7189 23.353 78.5819 24.49 78.5819 25.8921V28.4416C78.5819 34.6069 74.1855 39.7638 68.3634 40.9444V28.4312H71.0932C72.4952 28.4312 73.6322 27.2942 73.6322 25.8921C73.6322 24.49 72.4952 23.353 71.0932 23.353H60.8105C59.4084 23.353 58.2714 24.49 58.2714 25.8921C58.2714 27.2942 59.4084 28.4312 60.8105 28.4312H63.2853V40.9444C57.4632 39.764 53.0668 34.6069 53.0668 28.4416V25.8921C53.0668 24.49 51.9298 23.353 50.5278 23.353H44.6641C43.262 23.353 42.125 24.49 42.125 25.8921C42.125 27.2942 43.262 28.4312 44.6641 28.4312H47.9887V28.4416C47.9887 37.4138 54.6494 44.8566 63.2853 46.0931V51.3967H60.8105C59.4084 51.3967 58.2714 52.5335 58.2714 53.9358C58.2714 55.3379 59.4084 56.4748 60.8105 56.4748H71.0932C72.4952 56.4748 73.6322 55.3379 73.6322 53.9358C73.6322 52.5335 72.4952 51.3967 71.0932 51.3967H68.3634V46.0931C76.9993 44.8566 83.66 37.4136 83.66 28.4416L86.9846 28.4312C88.3867 28.4312 89.5237 27.2942 89.5237 25.8921C89.5237 24.4898 88.3867 23.353 86.9846 23.353Z" fill="url(#paint2_linear_418_90)"/>
<path d="M102.158 36.3269C102.158 16.2922 85.8588 -0.00683594 65.8243 -0.00683594C45.7899 -0.00683594 29.4906 16.2922 29.4906 36.3269C29.4906 56.3614 45.7896 72.6606 65.8243 72.6606C85.8591 72.6606 102.158 56.3614 102.158 36.3269ZM65.8243 67.5822C48.5899 67.5822 34.5687 53.561 34.5687 36.3266C34.5687 19.0925 48.5899 5.07129 65.8243 5.07129C83.0587 5.07129 97.0799 19.0925 97.0799 36.3269C97.0799 53.5613 83.0587 67.5822 65.8243 67.5822Z" fill="url(#paint3_linear_418_90)"/>
</g>
<defs>
<linearGradient id="paint0_linear_418_90" x1="15.2644" y1="117.361" x2="42.9181" y2="117.063" gradientUnits="userSpaceOnUse">
<stop stop-color="#539CD0"/>
<stop offset="1" stop-color="#75C1E5"/>
</linearGradient>
<linearGradient id="paint1_linear_418_90" x1="89.1978" y1="117.361" x2="116.852" y2="117.063" gradientUnits="userSpaceOnUse">
<stop stop-color="#539CD0"/>
<stop offset="1" stop-color="#75C1E5"/>
</linearGradient>
<linearGradient id="paint2_linear_418_90" x1="54.3326" y1="52.0987" x2="77.6977" y2="51.4844" gradientUnits="userSpaceOnUse">
<stop stop-color="#539CD0"/>
<stop offset="1" stop-color="#75C1E5"/>
</linearGradient>
<linearGradient id="paint3_linear_418_90" x1="48.2063" y1="63.0595" x2="84.0401" y2="62.4012" gradientUnits="userSpaceOnUse">
<stop stop-color="#539CD0"/>
<stop offset="1" stop-color="#75C1E5"/>
</linearGradient>
<clipPath id="clip0_418_90">
<rect width="130" height="130" fill="white" transform="translate(0.824341 -0.00683594)"/>
</clipPath>
</defs>
</svg>
