<svg width="131" height="130" viewBox="0 0 131 130" fill="none" xmlns="http://www.w3.org/2000/svg">
<g clip-path="url(#clip0_418_72)">
<path d="M39.0954 76.4784C34.0673 71.1027 25.4213 73.1684 23.0323 79.7967C22.0748 78.7442 19.6177 76.0366 19.5487 75.9672C19.0028 75.4213 18.7019 74.6952 18.7019 73.9228V43.3299C18.7019 38.4011 14.6919 34.3911 9.76311 34.3911C4.83428 34.3911 0.824341 38.4011 0.824341 43.3299V86.6699C0.824341 89.3994 1.88745 91.9654 3.81713 93.8956C3.89153 93.97 2.8269 92.9909 19.8328 108.565C20.7811 109.532 21.3029 110.808 21.3029 112.164V127.461C21.3029 128.863 22.4399 130 23.842 130H54.3518C55.7539 130 56.8909 128.863 56.8909 127.461V96.5052C56.8909 95.8611 56.6461 95.241 56.2061 94.7708L39.0954 76.4784ZM51.8128 124.922H26.381V112.164C26.381 109.435 25.3184 106.869 23.3882 104.939C23.3034 104.854 23.8998 105.405 7.37258 90.2693C6.42424 89.3024 5.90247 88.0265 5.90247 86.6702V43.3299C5.90247 41.2011 7.63436 39.4692 9.76311 39.4692C11.8919 39.4692 13.6235 41.2011 13.6235 43.3299V73.9228C13.6235 76.0114 14.4231 77.9761 15.8746 79.4711C18.2169 82.0486 30.0403 95.0592 32.3961 97.6516C33.3408 98.6908 34.9465 98.7647 35.9827 97.823C37.0205 96.88 37.0974 95.2743 36.1541 94.2363L28.4344 85.7411C26.9886 83.7995 27.3189 81.0207 29.2692 79.4836C31.1341 78.0132 33.7641 78.2123 35.3868 79.947L51.8128 97.5074V124.922Z" fill="black"/>
<path d="M39.0954 76.4784C34.0673 71.1027 25.4213 73.1684 23.0323 79.7967C22.0748 78.7442 19.6177 76.0366 19.5487 75.9672C19.0028 75.4213 18.7019 74.6952 18.7019 73.9228V43.3299C18.7019 38.4011 14.6919 34.3911 9.76311 34.3911C4.83428 34.3911 0.824341 38.4011 0.824341 43.3299V86.6699C0.824341 89.3994 1.88745 91.9654 3.81713 93.8956C3.89153 93.97 2.8269 92.9909 19.8328 108.565C20.7811 109.532 21.3029 110.808 21.3029 112.164V127.461C21.3029 128.863 22.4399 130 23.842 130H54.3518C55.7539 130 56.8909 128.863 56.8909 127.461V96.5052C56.8909 95.8611 56.6461 95.241 56.2061 94.7708L39.0954 76.4784ZM51.8128 124.922H26.381V112.164C26.381 109.435 25.3184 106.869 23.3882 104.939C23.3034 104.854 23.8998 105.405 7.37258 90.2693C6.42424 89.3024 5.90247 88.0265 5.90247 86.6702V43.3299C5.90247 41.2011 7.63436 39.4692 9.76311 39.4692C11.8919 39.4692 13.6235 41.2011 13.6235 43.3299V73.9228C13.6235 76.0114 14.4231 77.9761 15.8746 79.4711C18.2169 82.0486 30.0403 95.0592 32.3961 97.6516C33.3408 98.6908 34.9465 98.7647 35.9827 97.823C37.0205 96.88 37.0974 95.2743 36.1541 94.2363L28.4344 85.7411C26.9886 83.7995 27.3189 81.0207 29.2692 79.4836C31.1341 78.0132 33.7641 78.2123 35.3868 79.947L51.8128 97.5074V124.922Z" fill="white"/>
<path d="M121.886 34.3911C116.957 34.3911 112.947 38.4011 112.947 43.3299V73.9228C112.947 74.6952 112.646 75.4211 112.1 75.9672C112.035 76.0328 109.267 79.0817 108.617 79.7967C106.228 73.1689 97.5819 71.1029 92.5535 76.4784L75.4425 94.7708C75.0025 95.241 74.7578 95.8611 74.7578 96.5052V127.461C74.7578 128.863 75.8947 130 77.2968 130H107.807C109.209 130 110.346 128.863 110.346 127.461V112.164C110.346 110.808 110.868 109.532 111.816 108.565C128.634 93.163 127.757 93.9707 127.832 93.8958C129.761 91.9656 130.824 89.3996 130.824 86.6702V43.3299C130.824 38.4011 126.814 34.3911 121.886 34.3911ZM125.746 86.6702C125.746 88.0265 125.224 89.3024 124.276 90.2693C107.676 105.471 108.341 104.858 108.26 104.939C106.33 106.869 105.268 109.435 105.268 112.164V124.922H79.8359V97.5076L96.2618 79.9472C97.8843 78.2133 100.514 78.0137 102.379 79.4838C104.327 81.0187 104.662 83.7967 103.214 85.7414L95.4943 94.2366C94.551 95.2745 94.6279 96.8802 95.6657 97.8232C96.7031 98.766 98.3091 98.6901 99.2523 97.6519C101.642 95.0227 113.446 82.0328 115.774 79.4714C117.225 77.9764 118.025 76.0114 118.025 73.923V43.3299C118.025 41.2011 119.757 39.4692 121.886 39.4692C124.014 39.4692 125.746 41.2014 125.746 43.3299V86.6702Z" fill="black"/>
<path d="M121.886 34.3911C116.957 34.3911 112.947 38.4011 112.947 43.3299V73.9228C112.947 74.6952 112.646 75.4211 112.1 75.9672C112.035 76.0328 109.267 79.0817 108.617 79.7967C106.228 73.1689 97.5819 71.1029 92.5535 76.4784L75.4425 94.7708C75.0025 95.241 74.7578 95.8611 74.7578 96.5052V127.461C74.7578 128.863 75.8947 130 77.2968 130H107.807C109.209 130 110.346 128.863 110.346 127.461V112.164C110.346 110.808 110.868 109.532 111.816 108.565C128.634 93.163 127.757 93.9707 127.832 93.8958C129.761 91.9656 130.824 89.3996 130.824 86.6702V43.3299C130.824 38.4011 126.814 34.3911 121.886 34.3911ZM125.746 86.6702C125.746 88.0265 125.224 89.3024 124.276 90.2693C107.676 105.471 108.341 104.858 108.26 104.939C106.33 106.869 105.268 109.435 105.268 112.164V124.922H79.8359V97.5076L96.2618 79.9472C97.8843 78.2133 100.514 78.0137 102.379 79.4838C104.327 81.0187 104.662 83.7967 103.214 85.7414L95.4943 94.2366C94.551 95.2745 94.6279 96.8802 95.6657 97.8232C96.7031 98.766 98.3091 98.6901 99.2523 97.6519C101.642 95.0227 113.446 82.0328 115.774 79.4714C117.225 77.9764 118.025 76.0114 118.025 73.923V43.3299C118.025 41.2011 119.757 39.4692 121.886 39.4692C124.014 39.4692 125.746 41.2014 125.746 43.3299V86.6702Z" fill="white"/>
<path d="M86.9846 23.3599H81.1209C79.7189 23.3599 78.5819 24.4969 78.5819 25.8989V28.4484C78.5819 34.6137 74.1855 39.7706 68.3634 40.9513V28.438H71.0932C72.4952 28.438 73.6322 27.301 73.6322 25.8989C73.6322 24.4969 72.4952 23.3599 71.0932 23.3599H60.8105C59.4084 23.3599 58.2714 24.4969 58.2714 25.8989C58.2714 27.301 59.4084 28.438 60.8105 28.438H63.2853V40.9513C57.4632 39.7708 53.0668 34.6137 53.0668 28.4484V25.8989C53.0668 24.4969 51.9298 23.3599 50.5278 23.3599H44.6641C43.262 23.3599 42.125 24.4969 42.125 25.8989C42.125 27.301 43.262 28.438 44.6641 28.438H47.9887V28.4484C47.9887 37.4207 54.6494 44.8634 63.2853 46.1V51.4036H60.8105C59.4084 51.4036 58.2714 52.5403 58.2714 53.9426C58.2714 55.3447 59.4084 56.4817 60.8105 56.4817H71.0932C72.4952 56.4817 73.6322 55.3447 73.6322 53.9426C73.6322 52.5403 72.4952 51.4036 71.0932 51.4036H68.3634V46.1C76.9993 44.8634 83.66 37.4204 83.66 28.4484L86.9846 28.438C88.3867 28.438 89.5237 27.301 89.5237 25.8989C89.5237 24.4966 88.3867 23.3599 86.9846 23.3599Z" fill="black"/>
<path d="M86.9846 23.3599H81.1209C79.7189 23.3599 78.5819 24.4969 78.5819 25.8989V28.4484C78.5819 34.6137 74.1855 39.7706 68.3634 40.9513V28.438H71.0932C72.4952 28.438 73.6322 27.301 73.6322 25.8989C73.6322 24.4969 72.4952 23.3599 71.0932 23.3599H60.8105C59.4084 23.3599 58.2714 24.4969 58.2714 25.8989C58.2714 27.301 59.4084 28.438 60.8105 28.438H63.2853V40.9513C57.4632 39.7708 53.0668 34.6137 53.0668 28.4484V25.8989C53.0668 24.4969 51.9298 23.3599 50.5278 23.3599H44.6641C43.262 23.3599 42.125 24.4969 42.125 25.8989C42.125 27.301 43.262 28.438 44.6641 28.438H47.9887V28.4484C47.9887 37.4207 54.6494 44.8634 63.2853 46.1V51.4036H60.8105C59.4084 51.4036 58.2714 52.5403 58.2714 53.9426C58.2714 55.3447 59.4084 56.4817 60.8105 56.4817H71.0932C72.4952 56.4817 73.6322 55.3447 73.6322 53.9426C73.6322 52.5403 72.4952 51.4036 71.0932 51.4036H68.3634V46.1C76.9993 44.8634 83.66 37.4204 83.66 28.4484L86.9846 28.438C88.3867 28.438 89.5237 27.301 89.5237 25.8989C89.5237 24.4966 88.3867 23.3599 86.9846 23.3599Z" fill="white"/>
<path d="M102.158 36.3337C102.158 16.299 85.8588 0 65.8243 0C45.7899 0 29.4906 16.299 29.4906 36.3337C29.4906 56.3682 45.7896 72.6675 65.8243 72.6675C85.8591 72.6675 102.158 56.3682 102.158 36.3337ZM65.8243 67.5891C48.5899 67.5891 34.5687 53.5679 34.5687 36.3335C34.5687 19.0993 48.5899 5.07812 65.8243 5.07812C83.0587 5.07812 97.0799 19.0993 97.0799 36.3337C97.0799 53.5681 83.0587 67.5891 65.8243 67.5891Z" fill="black"/>
<path d="M102.158 36.3337C102.158 16.299 85.8588 0 65.8243 0C45.7899 0 29.4906 16.299 29.4906 36.3337C29.4906 56.3682 45.7896 72.6675 65.8243 72.6675C85.8591 72.6675 102.158 56.3682 102.158 36.3337ZM65.8243 67.5891C48.5899 67.5891 34.5687 53.5679 34.5687 36.3335C34.5687 19.0993 48.5899 5.07812 65.8243 5.07812C83.0587 5.07812 97.0799 19.0993 97.0799 36.3337C97.0799 53.5681 83.0587 67.5891 65.8243 67.5891Z" fill="white"/>
</g>
<defs>
<clipPath id="clip0_418_72">
<rect width="130" height="130" fill="white" transform="translate(0.824341)"/>
</clipPath>
</defs>
</svg>
