<svg width="131" height="130" viewBox="0 0 131 130" fill="none" xmlns="http://www.w3.org/2000/svg">
<g clip-path="url(#clip0_418_84)">
<path d="M128.285 26.7483C129.687 26.7483 130.824 25.6113 130.824 24.2092V14.0116C130.824 12.6093 129.687 11.4725 128.285 11.4725H3.3634C1.96108 11.4725 0.824341 12.6093 0.824341 14.0116V24.2092C0.824341 25.6113 1.96108 26.7483 3.3634 26.7483H11.022V67.8803C6.62914 69.0115 3.37381 73.0062 3.37381 77.7471C3.37381 82.4881 6.62914 86.4828 11.022 87.6139V98.1528H10.9806C5.38043 98.1528 0.824341 102.709 0.824341 108.309V115.988C0.824341 117.391 1.96108 118.528 3.3634 118.528H128.285C129.687 118.528 130.824 117.391 130.824 115.988V108.309C130.824 102.709 126.268 98.1528 120.668 98.1528H120.627V26.7483H128.285ZM5.90247 16.5507H125.746V21.6702C119.923 21.6702 16.4779 21.6702 5.90247 21.6702V16.5507ZM100.242 72.638C103.059 72.638 105.351 74.9298 105.351 77.7471C105.351 80.5645 103.059 82.8562 100.242 82.8562C97.4242 82.8562 95.1325 80.5645 95.1325 77.7471C95.1325 74.9298 97.4242 72.638 100.242 72.638ZM97.7025 67.8803C95.6934 68.3976 93.9241 69.5158 92.5934 71.0288C91.2627 69.5158 89.4932 68.3976 87.4841 67.8803V26.7483H97.7025V67.8803ZM39.0553 72.638C41.8726 72.638 44.1646 74.9298 44.1646 77.7471C44.1646 80.5645 41.8726 82.8562 39.0553 82.8562C36.2379 82.8562 33.9462 80.5645 33.9462 77.7471C33.9462 74.9298 36.2382 72.638 39.0553 72.638ZM41.5943 67.8803V26.7483H51.8128V67.8803C49.8036 68.3976 48.0344 69.5158 46.7037 71.0288C45.373 69.5158 43.6037 68.3976 41.5943 67.8803ZM54.3518 72.638C57.1692 72.638 59.4609 74.9298 59.4609 77.7471C59.4609 80.5645 57.1692 82.8562 54.3518 82.8562C51.5345 82.8562 49.2427 80.5645 49.2427 77.7471C49.2427 74.9298 51.5347 72.638 54.3518 72.638ZM56.8909 67.8803V26.7483H67.1094V67.8803C65.0999 68.3976 63.3307 69.5158 62 71.0288C60.6695 69.5158 58.9003 68.3976 56.8909 67.8803ZM69.6484 72.638C72.4658 72.638 74.7575 74.9298 74.7575 77.7471C74.7575 80.5645 72.4658 82.8562 69.6484 82.8562C66.8311 82.8562 64.5391 80.5645 64.5391 77.7471C64.5391 74.9298 66.8313 72.638 69.6484 72.638ZM72.1875 67.8803V26.7483H82.4057V67.8803C80.3965 68.3976 78.6273 69.5158 77.2966 71.0288C75.9661 69.5158 74.1969 68.3976 72.1875 67.8803ZM84.945 72.638C87.7623 72.638 90.0544 74.9298 90.0544 77.7471C90.0544 80.5645 87.7623 82.8562 84.945 82.8562C82.1277 82.8562 79.8359 80.5645 79.8359 77.7471C79.8359 74.9298 82.1277 72.638 84.945 72.638ZM24.1464 26.7483L16.1001 53.0934V26.7483H24.1464ZM8.45194 77.7471C8.45194 74.9326 10.7394 72.6429 13.5529 72.6383C16.5358 72.6693 18.6704 75.0522 18.6704 77.7471C18.6704 80.5645 16.3784 82.8562 13.561 82.8562C10.7437 82.8562 8.45194 80.5645 8.45194 77.7471ZM125.746 108.309V113.449H5.90247V108.309C5.90247 105.509 8.18051 103.231 10.9806 103.231H120.668C123.468 103.231 125.746 105.509 125.746 108.309ZM115.549 98.1528H16.1001V87.6139C20.4929 86.4828 23.7485 82.4878 23.7485 77.7471C23.7485 73.2721 20.8464 69.4642 16.8263 68.0997L29.4558 26.748H36.5162V67.8801C32.1234 69.0112 28.868 73.006 28.868 77.7469C28.868 83.3641 33.4381 87.9341 39.0553 87.9341C42.1001 87.9341 44.8352 86.5897 46.7037 84.4653C50.7685 89.0869 57.9294 89.0937 62 84.4653C66.0732 89.0962 73.2341 89.0846 77.2966 84.4653C81.3695 89.0962 88.5307 89.0843 92.5932 84.4653C94.4614 86.5897 97.1967 87.9341 100.241 87.9341C105.859 87.9341 110.429 83.3641 110.429 77.7469C110.429 73.006 107.173 69.011 102.78 67.8801V26.7483H115.548V98.1528H115.549Z" fill="black"/>
<path d="M128.285 26.7483C129.687 26.7483 130.824 25.6113 130.824 24.2092V14.0116C130.824 12.6093 129.687 11.4725 128.285 11.4725H3.3634C1.96108 11.4725 0.824341 12.6093 0.824341 14.0116V24.2092C0.824341 25.6113 1.96108 26.7483 3.3634 26.7483H11.022V67.8803C6.62914 69.0115 3.37381 73.0062 3.37381 77.7471C3.37381 82.4881 6.62914 86.4828 11.022 87.6139V98.1528H10.9806C5.38043 98.1528 0.824341 102.709 0.824341 108.309V115.988C0.824341 117.391 1.96108 118.528 3.3634 118.528H128.285C129.687 118.528 130.824 117.391 130.824 115.988V108.309C130.824 102.709 126.268 98.1528 120.668 98.1528H120.627V26.7483H128.285ZM5.90247 16.5507H125.746V21.6702C119.923 21.6702 16.4779 21.6702 5.90247 21.6702V16.5507ZM100.242 72.638C103.059 72.638 105.351 74.9298 105.351 77.7471C105.351 80.5645 103.059 82.8562 100.242 82.8562C97.4242 82.8562 95.1325 80.5645 95.1325 77.7471C95.1325 74.9298 97.4242 72.638 100.242 72.638ZM97.7025 67.8803C95.6934 68.3976 93.9241 69.5158 92.5934 71.0288C91.2627 69.5158 89.4932 68.3976 87.4841 67.8803V26.7483H97.7025V67.8803ZM39.0553 72.638C41.8726 72.638 44.1646 74.9298 44.1646 77.7471C44.1646 80.5645 41.8726 82.8562 39.0553 82.8562C36.2379 82.8562 33.9462 80.5645 33.9462 77.7471C33.9462 74.9298 36.2382 72.638 39.0553 72.638ZM41.5943 67.8803V26.7483H51.8128V67.8803C49.8036 68.3976 48.0344 69.5158 46.7037 71.0288C45.373 69.5158 43.6037 68.3976 41.5943 67.8803ZM54.3518 72.638C57.1692 72.638 59.4609 74.9298 59.4609 77.7471C59.4609 80.5645 57.1692 82.8562 54.3518 82.8562C51.5345 82.8562 49.2427 80.5645 49.2427 77.7471C49.2427 74.9298 51.5347 72.638 54.3518 72.638ZM56.8909 67.8803V26.7483H67.1094V67.8803C65.0999 68.3976 63.3307 69.5158 62 71.0288C60.6695 69.5158 58.9003 68.3976 56.8909 67.8803ZM69.6484 72.638C72.4658 72.638 74.7575 74.9298 74.7575 77.7471C74.7575 80.5645 72.4658 82.8562 69.6484 82.8562C66.8311 82.8562 64.5391 80.5645 64.5391 77.7471C64.5391 74.9298 66.8313 72.638 69.6484 72.638ZM72.1875 67.8803V26.7483H82.4057V67.8803C80.3965 68.3976 78.6273 69.5158 77.2966 71.0288C75.9661 69.5158 74.1969 68.3976 72.1875 67.8803ZM84.945 72.638C87.7623 72.638 90.0544 74.9298 90.0544 77.7471C90.0544 80.5645 87.7623 82.8562 84.945 82.8562C82.1277 82.8562 79.8359 80.5645 79.8359 77.7471C79.8359 74.9298 82.1277 72.638 84.945 72.638ZM24.1464 26.7483L16.1001 53.0934V26.7483H24.1464ZM8.45194 77.7471C8.45194 74.9326 10.7394 72.6429 13.5529 72.6383C16.5358 72.6693 18.6704 75.0522 18.6704 77.7471C18.6704 80.5645 16.3784 82.8562 13.561 82.8562C10.7437 82.8562 8.45194 80.5645 8.45194 77.7471ZM125.746 108.309V113.449H5.90247V108.309C5.90247 105.509 8.18051 103.231 10.9806 103.231H120.668C123.468 103.231 125.746 105.509 125.746 108.309ZM115.549 98.1528H16.1001V87.6139C20.4929 86.4828 23.7485 82.4878 23.7485 77.7471C23.7485 73.2721 20.8464 69.4642 16.8263 68.0997L29.4558 26.748H36.5162V67.8801C32.1234 69.0112 28.868 73.006 28.868 77.7469C28.868 83.3641 33.4381 87.9341 39.0553 87.9341C42.1001 87.9341 44.8352 86.5897 46.7037 84.4653C50.7685 89.0869 57.9294 89.0937 62 84.4653C66.0732 89.0962 73.2341 89.0846 77.2966 84.4653C81.3695 89.0962 88.5307 89.0843 92.5932 84.4653C94.4614 86.5897 97.1967 87.9341 100.241 87.9341C105.859 87.9341 110.429 83.3641 110.429 77.7469C110.429 73.006 107.173 69.011 102.78 67.8801V26.7483H115.548V98.1528H115.549Z" fill="white"/>
</g>
<defs>
<clipPath id="clip0_418_84">
<rect width="130" height="130" fill="white" transform="translate(0.824341)"/>
</clipPath>
</defs>
</svg>
