<svg width="81" height="24" viewBox="0 0 81 24" fill="none" xmlns="http://www.w3.org/2000/svg">
<path d="M0.0999756 12C0.0999756 17.9491 4.74818 22.8139 10.6106 23.1594C10.8318 23.173 11.0552 23.1787 11.2798 23.1787H20.68C21.6616 23.1787 22.4586 22.3818 22.4586 21.4002V12C22.4586 11.8301 22.454 11.6603 22.4472 11.4915C22.1804 5.55386 17.2825 0.821289 11.2787 0.821289C5.10503 0.821289 0.0999756 5.82635 0.0999756 12ZM5.78682 6.24933L6.19726 6.39754L20.4964 11.4927L20.558 11.5143H20.5603C20.6583 11.5349 20.7518 11.5691 20.8385 11.6135C21.1657 11.7823 21.3948 12.1117 21.4245 12.4982C21.4268 12.5256 21.4279 12.5541 21.4279 12.5815V21.2064C21.4279 21.7057 21.0232 22.1093 20.5238 22.1093H11.6698C11.3243 22.1093 11.0267 21.9064 10.8899 21.6134V21.61C10.8648 21.5598 10.8466 21.5062 10.8329 21.4515L10.6095 20.8164L5.54511 6.50129C5.48127 6.34738 5.63062 6.19118 5.78682 6.24933Z" fill="white"/>
<path d="M0.0999756 12C0.0999756 17.9491 4.74818 22.8139 10.6106 23.1594C10.8318 23.173 11.0552 23.1787 11.2798 23.1787H20.68C21.6616 23.1787 22.4586 22.3818 22.4586 21.4002V12C22.4586 11.8301 22.454 11.6603 22.4472 11.4915C22.1804 5.55386 17.2825 0.821289 11.2787 0.821289C5.10503 0.821289 0.0999756 5.82635 0.0999756 12ZM5.78682 6.24933L6.19726 6.39754L20.4964 11.4927L20.558 11.5143H20.5603C20.6583 11.5349 20.7518 11.5691 20.8385 11.6135C21.1657 11.7823 21.3948 12.1117 21.4245 12.4982C21.4268 12.5256 21.4279 12.5541 21.4279 12.5815V21.2064C21.4279 21.7057 21.0232 22.1093 20.5238 22.1093H11.6698C11.3243 22.1093 11.0267 21.9064 10.8899 21.6134V21.61C10.8648 21.5598 10.8466 21.5062 10.8329 21.4515L10.6095 20.8164L5.54511 6.50129C5.48127 6.34738 5.63062 6.19118 5.78682 6.24933Z" fill="url(#paint0_linear_324_1608)"/>
<path d="M18.7202 15.3144L16.7125 17.313L14.7048 19.3105L13.2808 15.8719L11.8579 12.4333L15.2885 13.8744L18.7202 15.3144Z" fill="white"/>
<path d="M18.7202 15.3144L16.7125 17.313L14.7048 19.3105L13.2808 15.8719L11.8579 12.4333L15.2885 13.8744L18.7202 15.3144Z" fill="url(#paint1_linear_324_1608)"/>
<path d="M27.0589 10.8365C27.3941 10.0362 27.8513 9.343 28.4305 8.75585C29.0097 8.1687 29.6994 7.70809 30.4998 7.3729C31.3001 7.03771 32.1655 6.87012 33.0947 6.87012C34.147 6.87012 35.0419 7.05253 35.7807 7.41851C36.5195 7.78448 37.1865 8.37848 37.7816 9.20163V7.16654H39.8395V19.7191H37.7816V17.7068C37.1261 18.5448 36.4477 19.1399 35.7465 19.4899C35.0454 19.8399 34.1835 20.0155 33.1631 20.0155C32.2179 20.0155 31.3412 19.8513 30.534 19.5241C29.7256 19.1969 29.0279 18.7432 28.4419 18.164C27.8547 17.5848 27.3941 16.8951 27.0589 16.0947C26.7237 15.2943 26.5562 14.4222 26.5562 13.477C26.5562 12.5319 26.7237 11.6369 27.0589 10.8365ZM29.0826 15.2727C29.3186 15.8291 29.639 16.3136 30.0426 16.7252C30.4462 17.1368 30.9262 17.4605 31.4825 17.6966C32.0389 17.9326 32.6443 18.0511 33.2999 18.0511C33.9554 18.0511 34.5312 17.9337 35.0716 17.6966C35.612 17.4605 36.0817 17.1368 36.4773 16.7252C36.8741 16.3136 37.1819 15.8302 37.4031 15.2727C37.6243 14.7163 37.7349 14.1029 37.7349 13.4326C37.7349 12.7622 37.6209 12.1488 37.3917 11.5924C37.1625 11.0361 36.8467 10.5515 36.4431 10.1399C36.0395 9.72836 35.5584 9.40799 35.0032 9.17997C34.4468 8.95081 33.8403 8.8368 33.1859 8.8368C32.5314 8.8368 31.9773 8.95537 31.4369 9.19137C30.8954 9.42737 30.4234 9.75572 30.0198 10.1741C29.6162 10.5937 29.2992 11.0817 29.0712 11.638C28.8421 12.1944 28.7281 12.8009 28.7281 13.4554C28.7281 14.1098 28.8455 14.7163 29.0826 15.2727Z" fill="white"/>
<path d="M27.0589 10.8365C27.3941 10.0362 27.8513 9.343 28.4305 8.75585C29.0097 8.1687 29.6994 7.70809 30.4998 7.3729C31.3001 7.03771 32.1655 6.87012 33.0947 6.87012C34.147 6.87012 35.0419 7.05253 35.7807 7.41851C36.5195 7.78448 37.1865 8.37848 37.7816 9.20163V7.16654H39.8395V19.7191H37.7816V17.7068C37.1261 18.5448 36.4477 19.1399 35.7465 19.4899C35.0454 19.8399 34.1835 20.0155 33.1631 20.0155C32.2179 20.0155 31.3412 19.8513 30.534 19.5241C29.7256 19.1969 29.0279 18.7432 28.4419 18.164C27.8547 17.5848 27.3941 16.8951 27.0589 16.0947C26.7237 15.2943 26.5562 14.4222 26.5562 13.477C26.5562 12.5319 26.7237 11.6369 27.0589 10.8365ZM29.0826 15.2727C29.3186 15.8291 29.639 16.3136 30.0426 16.7252C30.4462 17.1368 30.9262 17.4605 31.4825 17.6966C32.0389 17.9326 32.6443 18.0511 33.2999 18.0511C33.9554 18.0511 34.5312 17.9337 35.0716 17.6966C35.612 17.4605 36.0817 17.1368 36.4773 16.7252C36.8741 16.3136 37.1819 15.8302 37.4031 15.2727C37.6243 14.7163 37.7349 14.1029 37.7349 13.4326C37.7349 12.7622 37.6209 12.1488 37.3917 11.5924C37.1625 11.0361 36.8467 10.5515 36.4431 10.1399C36.0395 9.72836 35.5584 9.40799 35.0032 9.17997C34.4468 8.95081 33.8403 8.8368 33.1859 8.8368C32.5314 8.8368 31.9773 8.95537 31.4369 9.19137C30.8954 9.42737 30.4234 9.75572 30.0198 10.1741C29.6162 10.5937 29.2992 11.0817 29.0712 11.638C28.8421 12.1944 28.7281 12.8009 28.7281 13.4554C28.7281 14.1098 28.8455 14.7163 29.0826 15.2727Z" fill="url(#paint2_linear_324_1608)"/>
<path d="M42.5837 2.82129H44.7328V8.97215C45.296 8.25617 45.9562 7.71462 46.7109 7.34864C47.4657 6.98267 48.3299 6.80025 49.3058 6.80025C50.2817 6.80025 51.0969 6.96785 51.8893 7.30304C52.6816 7.63823 53.3714 8.10339 53.9586 8.69739C54.5457 9.29138 55.0029 9.99255 55.3301 10.8009C55.6573 11.6092 55.8215 12.478 55.8215 13.4072C55.8215 14.3363 55.6619 15.229 55.3415 16.0362C55.0211 16.8446 54.5719 17.5423 53.9928 18.1283C53.4136 18.7155 52.7307 19.1761 51.9463 19.5113C51.1607 19.8465 50.3034 20.0141 49.3742 20.0141C48.3686 20.0141 47.4725 19.8237 46.6881 19.4429C45.9026 19.0621 45.2208 18.4977 44.6416 17.751V19.7176H42.5837V2.82129ZM50.9521 17.7065C51.5005 17.4773 51.9771 17.1547 52.3807 16.7351C52.7843 16.3156 53.1012 15.8242 53.3292 15.2598C53.5584 14.6955 53.6724 14.0787 53.6724 13.4072C53.6724 12.7356 53.5584 12.1154 53.3292 11.5442C53.1001 10.973 52.7808 10.4805 52.3693 10.0689C51.9577 9.65736 51.4731 9.33699 50.9179 9.10897C50.3615 8.87981 49.7482 8.76579 49.0778 8.76579C48.4074 8.76579 47.843 8.88779 47.2947 9.13177C46.7463 9.37575 46.2731 9.70296 45.8775 10.1145C45.4807 10.5261 45.1684 11.0175 44.9403 11.5898C44.7112 12.161 44.5972 12.7755 44.5972 13.43C44.5972 14.0844 44.7112 14.6761 44.9403 15.2473C45.1695 15.8185 45.4887 16.311 45.9003 16.7226C46.3119 17.1342 46.7953 17.458 47.3528 17.694C47.9092 17.93 48.5077 18.0485 49.1473 18.0485C49.7869 18.0485 50.4049 17.9345 50.9532 17.7054L50.9521 17.7065Z" fill="white"/>
<path d="M42.5837 2.82129H44.7328V8.97215C45.296 8.25617 45.9562 7.71462 46.7109 7.34864C47.4657 6.98267 48.3299 6.80025 49.3058 6.80025C50.2817 6.80025 51.0969 6.96785 51.8893 7.30304C52.6816 7.63823 53.3714 8.10339 53.9586 8.69739C54.5457 9.29138 55.0029 9.99255 55.3301 10.8009C55.6573 11.6092 55.8215 12.478 55.8215 13.4072C55.8215 14.3363 55.6619 15.229 55.3415 16.0362C55.0211 16.8446 54.5719 17.5423 53.9928 18.1283C53.4136 18.7155 52.7307 19.1761 51.9463 19.5113C51.1607 19.8465 50.3034 20.0141 49.3742 20.0141C48.3686 20.0141 47.4725 19.8237 46.6881 19.4429C45.9026 19.0621 45.2208 18.4977 44.6416 17.751V19.7176H42.5837V2.82129ZM50.9521 17.7065C51.5005 17.4773 51.9771 17.1547 52.3807 16.7351C52.7843 16.3156 53.1012 15.8242 53.3292 15.2598C53.5584 14.6955 53.6724 14.0787 53.6724 13.4072C53.6724 12.7356 53.5584 12.1154 53.3292 11.5442C53.1001 10.973 52.7808 10.4805 52.3693 10.0689C51.9577 9.65736 51.4731 9.33699 50.9179 9.10897C50.3615 8.87981 49.7482 8.76579 49.0778 8.76579C48.4074 8.76579 47.843 8.88779 47.2947 9.13177C46.7463 9.37575 46.2731 9.70296 45.8775 10.1145C45.4807 10.5261 45.1684 11.0175 44.9403 11.5898C44.7112 12.161 44.5972 12.7755 44.5972 13.43C44.5972 14.0844 44.7112 14.6761 44.9403 15.2473C45.1695 15.8185 45.4887 16.311 45.9003 16.7226C46.3119 17.1342 46.7953 17.458 47.3528 17.694C47.9092 17.93 48.5077 18.0485 49.1473 18.0485C49.7869 18.0485 50.4049 17.9345 50.9532 17.7054L50.9521 17.7065Z" fill="url(#paint3_linear_324_1608)"/>
<path d="M69.5632 15.7173C69.35 16.3581 69.041 16.9407 68.6374 17.4662C68.2326 17.9918 67.7686 18.4456 67.243 18.8264C66.7174 19.2072 66.1337 19.5013 65.4941 19.7066C64.8545 19.9129 64.191 20.0155 63.5046 20.0155C62.5595 20.0155 61.6827 19.8445 60.8756 19.5013C60.0672 19.1582 59.3626 18.6896 58.7607 18.0956C58.1587 17.5016 57.6821 16.8038 57.3321 16.0035C56.981 15.2031 56.8065 14.3378 56.8065 13.4086C56.8065 12.4794 56.9775 11.6403 57.3207 10.8479C57.6639 10.0556 58.1279 9.36125 58.7151 8.76725C59.3022 8.17326 59.9954 7.70809 60.7957 7.3729C61.5961 7.03771 62.4455 6.87012 63.345 6.87012C64.2446 6.87012 65.1167 7.04113 65.9171 7.3843C66.7174 7.72748 67.4152 8.19264 68.0092 8.77865C68.6032 9.36581 69.0729 10.0556 69.4149 10.8479C69.7581 11.6403 69.9291 12.4943 69.9291 13.4086C69.9291 13.5614 69.9211 13.7028 69.9063 13.8316C69.8915 13.9616 69.8676 14.1018 69.8379 14.2546H59.0457C59.0913 14.803 59.2395 15.3069 59.4915 15.7641C59.7434 16.2213 60.0627 16.6214 60.4514 16.9646C60.8402 17.3078 61.294 17.5746 61.8116 17.765C62.3292 17.9554 62.8787 18.0511 63.4579 18.0511C64.2959 18.0511 65.054 17.8448 65.7335 17.4332C66.4119 17.0216 66.9341 16.4504 67.3 15.7185H69.5632V15.7173ZM67.7572 12.3563C67.4984 11.2436 66.9831 10.3782 66.2135 9.76142C65.444 9.14463 64.4942 8.83566 63.3667 8.83566C62.8183 8.83566 62.3075 8.91546 61.8344 9.07622C61.3612 9.23583 60.9383 9.47298 60.5654 9.78536C60.1915 10.0978 59.8757 10.4717 59.6169 10.9061C59.3569 11.3405 59.1665 11.825 59.0457 12.3586H67.7572V12.3563Z" fill="white"/>
<path d="M69.5632 15.7173C69.35 16.3581 69.041 16.9407 68.6374 17.4662C68.2326 17.9918 67.7686 18.4456 67.243 18.8264C66.7174 19.2072 66.1337 19.5013 65.4941 19.7066C64.8545 19.9129 64.191 20.0155 63.5046 20.0155C62.5595 20.0155 61.6827 19.8445 60.8756 19.5013C60.0672 19.1582 59.3626 18.6896 58.7607 18.0956C58.1587 17.5016 57.6821 16.8038 57.3321 16.0035C56.981 15.2031 56.8065 14.3378 56.8065 13.4086C56.8065 12.4794 56.9775 11.6403 57.3207 10.8479C57.6639 10.0556 58.1279 9.36125 58.7151 8.76725C59.3022 8.17326 59.9954 7.70809 60.7957 7.3729C61.5961 7.03771 62.4455 6.87012 63.345 6.87012C64.2446 6.87012 65.1167 7.04113 65.9171 7.3843C66.7174 7.72748 67.4152 8.19264 68.0092 8.77865C68.6032 9.36581 69.0729 10.0556 69.4149 10.8479C69.7581 11.6403 69.9291 12.4943 69.9291 13.4086C69.9291 13.5614 69.9211 13.7028 69.9063 13.8316C69.8915 13.9616 69.8676 14.1018 69.8379 14.2546H59.0457C59.0913 14.803 59.2395 15.3069 59.4915 15.7641C59.7434 16.2213 60.0627 16.6214 60.4514 16.9646C60.8402 17.3078 61.294 17.5746 61.8116 17.765C62.3292 17.9554 62.8787 18.0511 63.4579 18.0511C64.2959 18.0511 65.054 17.8448 65.7335 17.4332C66.4119 17.0216 66.9341 16.4504 67.3 15.7185H69.5632V15.7173ZM67.7572 12.3563C67.4984 11.2436 66.9831 10.3782 66.2135 9.76142C65.444 9.14463 64.4942 8.83566 63.3667 8.83566C62.8183 8.83566 62.3075 8.91546 61.8344 9.07622C61.3612 9.23583 60.9383 9.47298 60.5654 9.78536C60.1915 10.0978 59.8757 10.4717 59.6169 10.9061C59.3569 11.3405 59.1665 11.825 59.0457 12.3586H67.7572V12.3563Z" fill="url(#paint4_linear_324_1608)"/>
<path d="M73.1944 13.2946L69.0102 7.1665H71.4341L74.4519 11.6483L77.447 7.1665H79.8708L75.6866 13.2946L80.1 19.7191H77.5849L74.4519 14.9397L71.3189 19.7191H68.8038L73.1944 13.2946Z" fill="white"/>
<path d="M73.1944 13.2946L69.0102 7.1665H71.4341L74.4519 11.6483L77.447 7.1665H79.8708L75.6866 13.2946L80.1 19.7191H77.5849L74.4519 14.9397L71.3189 19.7191H68.8038L73.1944 13.2946Z" fill="url(#paint5_linear_324_1608)"/>
<path d="M41.3592 7.1665H39.8395V8.83562H41.3592V7.1665Z" fill="white"/>
<path d="M41.3592 7.1665H39.8395V8.83562H41.3592V7.1665Z" fill="url(#paint6_linear_324_1608)"/>
<path d="M42.5837 18.0498H41.064V19.7189H42.5837V18.0498Z" fill="white"/>
<path d="M42.5837 18.0498H41.064V19.7189H42.5837V18.0498Z" fill="url(#paint7_linear_324_1608)"/>
<defs>
<linearGradient id="paint0_linear_324_1608" x1="11.2793" y1="0.821289" x2="11.2793" y2="23.1787" gradientUnits="userSpaceOnUse">
<stop stop-color="#539CD0"/>
<stop offset="1" stop-color="#75C1E5"/>
</linearGradient>
<linearGradient id="paint1_linear_324_1608" x1="15.2891" y1="12.4333" x2="15.2891" y2="19.3105" gradientUnits="userSpaceOnUse">
<stop stop-color="#539CD0"/>
<stop offset="1" stop-color="#75C1E5"/>
</linearGradient>
<linearGradient id="paint2_linear_324_1608" x1="33.1978" y1="6.87012" x2="33.1978" y2="20.0155" gradientUnits="userSpaceOnUse">
<stop stop-color="#539CD0"/>
<stop offset="1" stop-color="#75C1E5"/>
</linearGradient>
<linearGradient id="paint3_linear_324_1608" x1="49.2026" y1="2.82129" x2="49.2026" y2="20.0141" gradientUnits="userSpaceOnUse">
<stop stop-color="#539CD0"/>
<stop offset="1" stop-color="#75C1E5"/>
</linearGradient>
<linearGradient id="paint4_linear_324_1608" x1="63.3678" y1="6.87012" x2="63.3678" y2="20.0155" gradientUnits="userSpaceOnUse">
<stop stop-color="#539CD0"/>
<stop offset="1" stop-color="#75C1E5"/>
</linearGradient>
<linearGradient id="paint5_linear_324_1608" x1="74.4519" y1="7.1665" x2="74.4519" y2="19.7191" gradientUnits="userSpaceOnUse">
<stop stop-color="#539CD0"/>
<stop offset="1" stop-color="#75C1E5"/>
</linearGradient>
<linearGradient id="paint6_linear_324_1608" x1="40.5994" y1="7.1665" x2="40.5994" y2="8.83562" gradientUnits="userSpaceOnUse">
<stop stop-color="#539CD0"/>
<stop offset="1" stop-color="#75C1E5"/>
</linearGradient>
<linearGradient id="paint7_linear_324_1608" x1="41.8238" y1="18.0498" x2="41.8238" y2="19.7189" gradientUnits="userSpaceOnUse">
<stop stop-color="#539CD0"/>
<stop offset="1" stop-color="#75C1E5"/>
</linearGradient>
</defs>
</svg>
