<svg width="85" height="85" viewBox="0 0 85 85" fill="none" xmlns="http://www.w3.org/2000/svg">
<path opacity="0.5" d="M42.5 77.5C61.83 77.5 77.5 61.83 77.5 42.5C77.5 23.17 61.83 7.5 42.5 7.5C23.17 7.5 7.5 23.17 7.5 42.5C7.5 61.83 23.17 77.5 42.5 77.5Z" fill="white"/>
<path fill-rule="evenodd" clip-rule="evenodd" d="M42.5 25.875C43.9497 25.875 45.125 27.0503 45.125 28.5V41.4127L53.1062 49.3938C54.1313 50.419 54.1313 52.081 53.1062 53.1062C52.081 54.1313 50.419 54.1313 49.3938 53.1062L40.6438 44.3562C40.1516 43.8639 39.875 43.1962 39.875 42.5V28.5C39.875 27.0503 41.0503 25.875 42.5 25.875Z" fill="white"/>
</svg>
