<svg width="1014" height="793" viewBox="0 0 1014 793" fill="none" xmlns="http://www.w3.org/2000/svg">
<path d="M232.978 360.178C145.069 299.469 49.3543 315.649 -40.247 373.831C-121.276 426.446 -162.741 491.474 -163.944 588.08C-165.58 719.469 -71.2917 812.609 56.7685 842.044C160.53 865.894 226.459 717.102 319.426 768.991C398.052 812.877 333.772 938.972 414.378 979.107C514.81 1029.11 622.008 955.005 673.677 855.418C719.335 767.413 717.625 677.232 652.561 602.424C567.078 504.138 420.08 696.374 319.21 613.956C238.155 547.727 319.108 419.657 232.978 360.178Z" stroke="#75C1E5" stroke-width="0.5"/>
<path d="M223.972 375.739C136.063 315.031 40.3483 331.21 -49.2531 389.392C-130.282 442.007 -171.747 507.035 -172.95 603.641C-174.586 735.03 -80.2978 828.17 47.7625 857.605C151.524 881.456 217.453 732.663 310.419 784.553C389.046 828.438 324.766 954.533 405.372 994.668C505.804 1044.67 613.002 970.567 664.671 870.979C710.329 782.975 708.618 692.793 643.555 617.985C558.072 519.699 411.074 711.935 310.204 629.517C229.149 563.289 310.102 435.219 223.972 375.739Z" stroke="#75C1E5" stroke-width="0.5"/>
<path d="M214.966 391.3C127.057 330.592 31.3423 346.771 -58.2591 404.953C-139.288 457.569 -180.753 522.596 -181.956 619.202C-183.592 750.592 -89.3038 843.731 38.7564 873.167C142.518 897.017 208.447 748.224 301.413 800.114C380.04 843.999 315.76 970.095 396.366 1010.23C496.798 1060.24 603.996 986.128 655.665 886.54C701.323 798.536 699.612 708.355 634.549 633.547C549.066 535.261 402.068 727.497 301.198 645.078C220.142 578.85 301.096 450.78 214.966 391.3Z" stroke="#75C1E5" stroke-width="0.5"/>
<path d="M205.96 406.861C118.051 346.153 22.3361 362.332 -67.2653 420.514C-148.294 473.13 -189.759 538.157 -190.962 634.763C-192.598 766.153 -98.31 859.292 29.7503 888.728C133.512 912.578 199.441 763.785 292.407 815.675C371.034 859.56 306.754 985.656 387.359 1025.79C487.792 1075.8 594.99 1001.69 646.658 902.101C692.317 814.097 690.606 723.916 625.543 649.108C540.059 550.822 393.061 743.058 292.191 660.639C211.136 594.411 292.089 466.341 205.96 406.861Z" stroke="#75C1E5" stroke-width="0.5"/>
<path d="M196.954 422.423C109.044 361.714 13.3298 377.893 -76.2716 436.075C-157.301 488.691 -198.765 553.719 -199.968 650.324C-201.604 781.714 -107.316 874.854 20.744 904.289C124.506 928.139 190.434 779.347 283.401 831.236C362.027 875.122 297.747 1001.22 378.353 1041.35C478.786 1091.36 585.984 1017.25 637.652 917.663C683.311 829.658 681.6 739.477 616.537 664.669C531.053 566.383 384.055 758.619 283.185 676.2C202.13 609.972 283.083 481.902 196.954 422.423Z" stroke="#75C1E5" stroke-width="0.5"/>
<path d="M187.947 437.984C100.038 377.275 4.32346 393.455 -85.2779 451.637C-166.307 504.252 -207.772 569.28 -208.975 665.886C-210.611 797.275 -116.323 890.415 11.7376 919.85C115.499 943.7 181.428 794.908 274.395 846.797C353.021 890.683 288.741 1016.78 369.347 1056.91C469.779 1106.92 576.977 1032.81 628.646 933.224C674.304 845.219 672.594 755.038 607.53 680.23C522.047 581.944 375.049 774.18 274.179 691.762C193.124 625.533 274.077 497.463 187.947 437.984Z" stroke="#75C1E5" stroke-width="0.5"/>
<path d="M176.583 458.497C88.6734 397.789 -7.04123 413.968 -96.6426 472.15C-177.672 524.765 -219.136 589.793 -220.339 686.399C-221.975 817.788 -127.687 910.928 0.372961 940.363C104.135 964.213 170.063 815.421 263.03 867.31C341.656 911.196 277.376 1037.29 357.982 1077.43C458.414 1127.43 565.613 1053.32 617.281 953.737C662.94 865.733 661.229 775.551 596.166 700.743C510.682 602.457 363.684 794.693 262.814 712.275C181.759 646.046 262.712 517.977 176.583 458.497Z" stroke="#75C1E5" stroke-width="0.5"/>
<path d="M165.218 479.01C77.3087 418.302 -18.4059 434.481 -108.007 492.663C-189.036 545.278 -230.501 610.306 -231.704 706.912C-233.34 838.301 -139.052 931.441 -10.9917 960.876C92.77 984.726 158.699 835.934 251.665 887.824C330.292 931.709 266.012 1057.8 346.617 1097.94C447.05 1147.95 554.248 1073.84 605.916 974.25C651.575 886.246 649.864 796.064 584.801 721.256C499.317 622.97 352.319 815.206 251.449 732.788C170.394 666.56 251.347 538.49 165.218 479.01Z" stroke="#75C1E5" stroke-width="0.5"/>
<path d="M153.853 499.523C65.944 438.815 -29.7706 454.994 -119.372 513.176C-200.401 565.791 -241.866 630.819 -243.069 727.425C-244.705 858.814 -150.417 951.954 -22.3564 981.389C81.4053 1005.24 147.334 856.447 240.301 908.337C318.927 952.222 254.647 1078.32 335.253 1118.45C435.685 1168.46 542.883 1094.35 594.552 994.763C640.21 906.759 638.5 816.577 573.436 741.769C487.953 643.483 340.955 835.719 240.085 753.301C159.03 687.073 239.983 559.003 153.853 499.523Z" stroke="#75C1E5" stroke-width="0.5"/>
<path d="M142.489 520.036C54.5794 459.328 -41.1352 475.507 -130.737 533.689C-211.766 586.304 -253.23 651.332 -254.433 747.938C-256.069 879.327 -161.781 972.467 -33.721 1001.9C70.0407 1025.75 135.969 876.96 228.936 928.85C307.562 972.735 243.282 1098.83 323.888 1138.96C424.32 1188.97 531.519 1114.86 583.187 1015.28C628.846 927.272 627.135 837.09 562.072 762.283C476.588 663.996 329.59 856.233 228.72 773.814C147.665 707.586 228.618 579.516 142.489 520.036Z" stroke="#75C1E5" stroke-width="0.5"/>
<path d="M131.124 540.549C43.2147 479.841 -52.4999 496.02 -142.101 554.202C-223.13 606.818 -264.595 671.845 -265.798 768.451C-267.434 899.84 -173.146 992.98 -45.0857 1022.42C58.676 1046.27 124.605 897.473 217.571 949.363C296.198 993.248 231.918 1119.34 312.523 1159.48C412.956 1209.48 520.154 1135.38 571.822 1035.79C617.481 947.785 615.77 857.603 550.707 782.796C465.223 684.509 318.225 876.746 217.355 794.327C136.3 728.099 217.253 600.029 131.124 540.549Z" stroke="#75C1E5" stroke-width="0.5"/>
<path d="M119.759 561.062C31.85 500.354 -63.8646 516.533 -153.466 574.715C-234.495 627.331 -275.96 692.358 -277.163 788.964C-278.799 920.354 -184.511 1013.49 -56.4504 1042.93C47.3113 1066.78 113.24 917.986 206.207 969.876C284.833 1013.76 220.553 1139.86 301.159 1179.99C401.591 1230 508.789 1155.89 560.458 1056.3C606.116 968.298 604.406 878.117 539.342 803.309C453.859 705.023 306.861 897.259 205.991 814.84C124.936 748.612 205.889 620.542 119.759 561.062Z" stroke="#75C1E5" stroke-width="0.5"/>
<path d="M108.395 581.576C20.4854 520.867 -75.2292 537.046 -164.831 595.228C-245.86 647.844 -287.324 712.872 -288.527 809.477C-290.163 940.867 -195.875 1034.01 -67.815 1063.44C35.9467 1087.29 101.875 938.499 194.842 990.389C273.468 1034.27 209.188 1160.37 289.794 1200.5C390.227 1250.51 497.425 1176.4 549.093 1076.82C594.752 988.811 593.041 898.63 527.978 823.822C442.494 725.536 295.496 917.772 194.626 835.353C113.571 769.125 194.524 641.055 108.395 581.576Z" stroke="#75C1E5" stroke-width="0.5"/>
<path d="M97.0299 602.089C9.1207 541.38 -86.5939 557.559 -176.195 615.741C-257.224 668.357 -298.689 733.385 -299.892 829.99C-301.528 961.38 -207.24 1054.52 -79.1797 1083.95C24.582 1107.8 90.5107 959.012 183.477 1010.9C262.104 1054.79 197.824 1180.88 278.429 1221.02C378.862 1271.02 486.06 1196.92 537.728 1097.33C583.387 1009.32 581.676 919.143 516.613 844.335C431.129 746.049 284.131 938.285 183.261 855.866C102.206 789.638 183.159 661.568 97.0299 602.089Z" stroke="#75C1E5" stroke-width="0.5"/>
<path d="M85.6652 622.602C-2.24398 561.893 -97.9586 578.072 -187.56 636.254C-268.589 688.87 -310.054 753.898 -311.257 850.503C-312.893 981.893 -218.605 1075.03 -90.5444 1104.47C13.2173 1128.32 79.146 979.526 172.113 1031.42C250.739 1075.3 186.459 1201.4 267.065 1241.53C367.497 1291.54 474.695 1217.43 526.364 1117.84C572.022 1029.84 570.312 939.656 505.248 864.848C419.765 766.562 272.767 958.798 171.897 876.379C90.8417 810.151 171.795 682.081 85.6652 622.602Z" stroke="#75C1E5" stroke-width="0.5"/>
<path d="M74.3006 643.115C-13.6086 582.406 -109.323 598.585 -198.925 656.767C-279.954 709.383 -321.418 774.411 -322.621 871.016C-324.257 1002.41 -229.969 1095.55 -101.909 1124.98C1.85267 1148.83 67.7814 1000.04 160.748 1051.93C239.374 1095.81 175.094 1221.91 255.7 1262.04C356.133 1312.05 463.331 1237.94 514.999 1138.35C560.658 1050.35 558.947 960.169 493.884 885.361C408.4 787.075 261.402 979.311 160.532 896.892C79.477 830.664 160.43 702.594 74.3006 643.115Z" stroke="#75C1E5" stroke-width="0.5"/>
<path d="M62.9359 663.628C-24.9733 602.919 -120.688 619.099 -210.289 677.28C-291.318 729.896 -332.783 794.924 -333.986 891.53C-335.622 1022.92 -241.334 1116.06 -113.274 1145.49C-9.51201 1169.34 56.4167 1020.55 149.383 1072.44C228.01 1116.33 163.73 1242.42 244.335 1282.56C344.768 1332.56 451.966 1258.46 503.634 1158.87C549.293 1070.86 547.582 980.682 482.519 905.874C397.035 807.588 250.037 999.824 149.167 917.406C68.1123 851.177 149.065 723.107 62.9359 663.628Z" stroke="#75C1E5" stroke-width="0.5"/>
<path d="M51.5712 684.141C-36.338 623.432 -132.053 639.612 -221.654 697.794C-302.683 750.409 -344.148 815.437 -345.351 912.043C-346.987 1043.43 -252.699 1136.57 -124.638 1166.01C-20.8767 1189.86 45.052 1041.06 138.019 1092.95C216.645 1136.84 152.365 1262.94 232.971 1303.07C333.403 1353.08 440.601 1278.97 492.27 1179.38C537.928 1091.38 536.218 1001.2 471.154 926.387C385.671 828.101 238.673 1020.34 137.803 937.919C56.7477 871.69 137.701 743.62 51.5712 684.141Z" stroke="#75C1E5" stroke-width="0.5"/>
<path d="M40.2066 704.654C-47.7026 643.946 -143.417 660.125 -233.019 718.307C-314.048 770.922 -355.512 835.95 -356.715 932.556C-358.351 1063.95 -264.063 1157.09 -136.003 1186.52C-32.2413 1210.37 33.6874 1061.58 126.654 1113.47C205.28 1157.35 141 1283.45 221.606 1323.58C322.039 1373.59 429.237 1299.48 480.905 1199.89C526.564 1111.89 524.853 1021.71 459.79 946.9C374.306 848.614 227.308 1040.85 126.438 958.432C45.383 892.203 126.336 764.134 40.2066 704.654Z" stroke="#75C1E5" stroke-width="0.5"/>
</svg>
