<svg width="25" height="25" viewBox="0 0 25 25" fill="none" xmlns="http://www.w3.org/2000/svg">
<path d="M12.4999 1.94C6.66794 1.94 1.93994 6.668 1.93994 12.5C1.93994 17.7944 5.83994 22.1658 10.9217 22.9294V15.2989H8.30906V12.523H10.9217V10.676C10.9217 7.61792 12.4116 6.27536 14.9532 6.27536C16.1705 6.27536 16.8142 6.3656 17.119 6.40688V8.82992H15.3852C14.3062 8.82992 13.9294 9.8528 13.9294 11.0058V12.523H17.0916L16.6625 15.2989H13.9294V22.952C19.0836 22.2526 23.0599 17.8458 23.0599 12.5C23.0599 6.668 18.3319 1.94 12.4999 1.94Z" fill="white"/>
<path d="M12.4999 1.94C6.66794 1.94 1.93994 6.668 1.93994 12.5C1.93994 17.7944 5.83994 22.1658 10.9217 22.9294V15.2989H8.30906V12.523H10.9217V10.676C10.9217 7.61792 12.4116 6.27536 14.9532 6.27536C16.1705 6.27536 16.8142 6.3656 17.119 6.40688V8.82992H15.3852C14.3062 8.82992 13.9294 9.8528 13.9294 11.0058V12.523H17.0916L16.6625 15.2989H13.9294V22.952C19.0836 22.2526 23.0599 17.8458 23.0599 12.5C23.0599 6.668 18.3319 1.94 12.4999 1.94Z" fill="url(#paint0_linear_338_386)"/>
<defs>
<linearGradient id="paint0_linear_338_386" x1="10.8199" y1="24.1456" x2="23.1821" y2="24.0751" gradientUnits="userSpaceOnUse">
<stop stop-color="#539CD0"/>
<stop offset="1" stop-color="#75C1E5"/>
</linearGradient>
</defs>
</svg>
