<svg width="50" height="50" viewBox="0 0 50 50" fill="none" xmlns="http://www.w3.org/2000/svg">
<path d="M24.8207 0.000900269C21.0215 0.0772209 17.7864 2.63649 16.6009 6.12609C16.6052 6.11326 16.6081 6.10015 16.6124 6.08729C15.9794 5.83747 15.3013 5.69783 14.6041 5.69783H5.69818V14.6039C5.69818 15.3036 5.83873 15.9843 6.09056 16.6193C6.09489 16.6179 6.09923 16.6168 6.10356 16.6153C4.77258 17.0741 3.54552 17.8354 2.54684 18.8533C0.859955 20.5702 -0.0436875 22.8111 0.00162501 25.1696C0.0759009 28.996 2.61685 32.2513 6.07452 33.4213C5.83298 34.0452 5.69818 34.7115 5.69818 35.3961V44.3019H14.6041C15.2854 44.3019 15.949 44.1684 16.57 43.9288C16.5664 43.918 16.5639 43.9064 16.5603 43.8956C16.9891 45.201 17.7188 46.3976 18.7184 47.3953C20.393 49.0759 22.6251 50.001 24.9984 50.001C25.0588 50.001 25.1189 49.9981 25.1791 49.9981C28.9644 49.9241 32.1919 47.384 33.389 43.9129C34.0218 44.1626 34.6994 44.3019 35.3963 44.3019H44.3022V35.3961C44.3022 34.6965 44.1617 34.0163 43.91 33.3813C45.2357 32.9214 46.4574 32.1605 47.4532 31.1454C49.1399 29.4286 50.0435 27.1877 49.9984 24.8292C49.9239 20.997 47.372 17.7363 43.9046 16.5729C43.9114 16.5752 43.9187 16.5767 43.9255 16.5791C44.1672 15.9553 44.3022 15.2887 44.3022 14.6039V5.69783H35.3963C34.7149 5.69783 34.0518 5.83138 33.4307 6.07052C32.9999 4.77788 32.2738 3.5939 31.2845 2.60637C29.6048 0.923599 27.3815 -0.000614166 24.9915 -0.000648499C24.9346 -0.000648499 24.8778 -0.000156403 24.8207 0.000900269ZM3.01068 25.1153C2.98341 23.5733 3.58286 22.0972 4.69429 20.9647C5.842 19.7961 7.42928 19.1274 9.05268 19.1274H14.5827C17.0889 19.1274 19.1281 17.0883 19.1281 14.5822V9.05216C19.1281 5.78409 21.7094 3.07633 24.881 3.01295H24.9984C26.5707 3.01295 28.0436 3.6215 29.152 4.73595C30.2635 5.84125 30.875 7.31418 30.875 8.88659V15.2118H33.8869V9.22623C34.3168 8.89396 34.8457 8.70971 35.3963 8.70971H41.2901V14.6039C41.2901 15.1548 41.1057 15.6843 40.7731 16.1144H41.1145C41.135 16.1144 41.1548 16.1167 41.175 16.1168C41.1554 16.1168 41.1357 16.1155 41.1158 16.1155H34.7907H33.8869H30.875H29.9714H26.6582C20.8449 16.1155 16.116 20.8444 16.116 26.6575V29.9707H19.1281V26.6575C19.1281 22.5041 22.5045 19.1274 26.6582 19.1274H29.9714H30.875H33.8869H34.7907H41.1158C44.2906 19.1274 46.926 21.7118 46.9894 24.8864C47.0164 26.4286 46.42 27.9015 45.3055 29.0341C44.158 30.2027 42.5707 30.8743 40.9502 30.8743H35.4171C32.9112 30.8743 30.875 32.9104 30.875 35.4165V40.9465C30.875 44.2146 28.2937 46.9227 25.1189 46.9858L24.9984 46.989C23.4293 46.989 21.9563 46.377 20.8478 45.2659C19.7364 44.1575 19.1281 42.6847 19.1281 41.1152V34.79H16.116V41.1152C16.116 41.1414 16.1177 41.1675 16.1179 41.1934C16.1176 41.1669 16.1147 41.1411 16.1147 41.1143V40.7726C15.6847 41.1052 15.155 41.2899 14.6041 41.2899H8.71008V35.3961C8.71008 34.8456 8.8945 34.3163 9.22677 33.8864H15.2124H16.116H19.1281H20.0317H23.3448C29.1551 33.8864 33.8869 29.1575 33.8869 23.3444V20.031H30.875V23.3444C30.875 27.4949 27.4954 30.8743 23.3448 30.8743H20.0317H19.1281H16.116H15.2124H8.88707C5.70938 30.8743 3.07378 28.2901 3.01068 25.1153ZM9.05144 16.1144H9.22695C8.89451 15.6843 8.71008 15.1552 8.71008 14.6039V8.70971H14.6041C15.1553 8.70971 15.6847 8.89396 16.1147 9.22658V9.05251C16.1147 9.02774 16.1174 9.00365 16.1178 8.97888C16.1174 9.00347 16.116 9.02757 16.116 9.05216V14.5822C16.116 15.4287 15.4292 16.1155 14.5827 16.1155H9.05268C9.0314 16.1155 9.01015 16.1168 8.98883 16.1171C9.00973 16.1168 9.03034 16.1144 9.05144 16.1144ZM33.8869 40.774V35.4165C33.8869 34.5732 34.5737 33.8864 35.4171 33.8864H40.7738C41.106 34.3163 41.2901 34.8454 41.2901 35.3961V41.2899H35.3963C34.8454 41.2899 34.3167 41.1059 33.8869 40.774Z" fill="url(#paint0_linear_230_357)"/>
<defs>
<linearGradient id="paint0_linear_230_357" x1="50" y1="20.1266" x2="6.02412e-07" y2="20.1266" gradientUnits="userSpaceOnUse">
<stop stop-color="#007D6E"/>
<stop offset="1" stop-color="#5EB47C"/>
</linearGradient>
</defs>
</svg>
