<svg width="201" height="200" viewBox="0 0 201 200" fill="none" xmlns="http://www.w3.org/2000/svg">
<path d="M179.095 129.299H170.073C167.916 129.299 166.07 131.183 166.07 133.341V137.264C166.07 146.749 159.429 154.684 150.444 156.5V137.112H154.645C156.802 137.112 158.552 135.363 158.552 133.205C158.552 131.048 156.802 129.299 154.645 129.299H138.824C136.667 129.299 134.918 131.048 134.918 133.205C134.918 135.363 136.667 137.112 138.824 137.112H142.631V156.5C133.646 154.683 127.004 146.749 127.004 137.263V133.341C127.004 131.183 125.161 129.299 123.004 129.299H113.982C111.825 129.299 110.076 131.048 110.076 133.205C110.076 135.362 111.825 137.112 113.982 137.112H119.191V137.263C119.191 151.068 129.348 162.519 142.631 164.422V172.661H138.824C136.667 172.661 134.918 174.411 134.918 176.568C134.918 178.725 136.667 180.474 138.824 180.474H154.645C156.802 180.474 158.552 178.725 158.552 176.568C158.552 174.411 156.802 172.661 154.645 172.661H150.444V164.422C163.726 162.519 173.979 151.068 173.979 137.263L179.095 137.247C181.252 137.247 183.001 135.43 183.001 133.273C183.002 131.116 181.253 129.299 179.095 129.299Z" fill="url(#paint0_linear_418_96)"/>
<path d="M77.5565 79.5865C75.2552 81.8871 71.5124 81.8871 69.213 79.5865C67.6871 78.0614 65.2143 78.0614 63.688 79.5865C62.1625 81.112 62.1625 83.5856 63.688 85.1115C69.0337 90.4576 77.7335 90.4587 83.0807 85.1115C84.6066 83.586 84.6066 81.1128 83.0811 79.5869C81.556 78.0618 79.082 78.0614 77.5565 79.5865Z" fill="url(#paint1_linear_418_96)"/>
<path d="M59.6553 66.6418C61.8128 66.6418 63.5618 64.8928 63.5618 62.7353C63.5618 60.5778 61.8128 58.8288 59.6553 58.8288C57.4978 58.8288 55.7487 60.5778 55.7487 62.7353C55.7487 64.8928 57.4978 66.6418 59.6553 66.6418Z" fill="url(#paint2_linear_418_96)"/>
<path d="M87.1143 66.6418C89.2718 66.6418 91.0208 64.8928 91.0208 62.7353C91.0208 60.5778 89.2718 58.8288 87.1143 58.8288C84.9567 58.8288 83.2077 60.5778 83.2077 62.7353C83.2077 64.8928 84.9567 66.6418 87.1143 66.6418Z" fill="url(#paint3_linear_418_96)"/>
<path d="M146.489 91.3865C139.347 91.3865 132.474 92.7749 126.224 95.2915V52.9304C126.224 23.4823 102.461 -0.00683594 73.3117 -0.00683594C44.1222 -0.00683594 20.3569 23.7405 20.3569 52.9304V129.761C8.24672 138.316 0.824341 152.176 0.824341 167.27V196.1C0.824341 198.257 2.58462 200.007 4.7418 200.007H146.539C176.486 200.007 200.824 175.643 200.824 145.697C200.824 115.75 176.436 91.3865 146.489 91.3865ZM73.3336 7.8062C98.1263 7.8062 118.41 27.8369 118.41 52.9304V99.1949C109.816 104.534 102.497 112.501 97.8818 121.486H89.1112V106.327C101.612 100.398 110.597 87.4851 110.597 72.5427V47.0468C110.597 44.8896 108.865 43.1403 106.708 43.1403C97.6665 43.1403 88.9561 39.8525 82.1662 33.883L75.9596 28.4228C74.4782 27.1208 72.2609 27.1267 70.7873 28.4373L64.8143 33.6599C58.0001 39.717 49.228 42.9649 40.1114 42.9649H40.0438C37.8866 42.9649 35.983 44.8896 35.983 47.0468V72.5427C35.983 87.4851 44.968 100.398 57.8595 106.327V121.486H46.5157C40.1899 121.486 34.0293 122.895 28.1696 125.392V52.9304C28.17 28.0486 48.4522 7.8062 73.3336 7.8062ZM73.2898 101.977C57.0598 101.977 43.796 88.7727 43.796 72.5423V50.7896C53.5623 49.9673 62.6442 46.0615 69.9287 39.5865L73.3605 36.5703L76.9795 39.7502C84.2132 46.11 93.4084 49.9544 102.784 50.7834V72.5419C102.784 88.7731 89.5202 101.977 73.2898 101.977ZM65.6725 108.953C68.0164 109.5 70.7893 109.791 73.4852 109.791C76.1814 109.791 78.564 109.5 81.2986 108.953V124.083C77.3921 128.601 69.579 128.607 65.6725 124.083V108.953ZM32.0765 192.194V176.488C32.0765 174.331 30.3271 172.582 28.17 172.582C26.0128 172.582 24.2634 174.331 24.2634 176.488V192.194H8.63737V167.27C8.63737 145.805 26.1628 129.299 46.5161 129.299H59.6565C59.7045 129.299 59.751 129.345 59.7987 129.344C67.1398 137.225 79.5914 137.253 86.9716 129.331C87.0193 129.332 87.0658 129.299 87.1138 129.299H94.7272C93.1053 134.378 92.2286 139.971 92.2286 145.645C92.2286 165.34 102.767 182.671 118.501 192.194H32.0765V192.194ZM146.539 192.194C120.9 192.194 100.042 171.335 100.042 145.697C100.042 120.059 120.901 99.1999 146.539 99.1999C172.177 99.1999 193.036 120.059 193.036 145.697C193.036 171.335 172.177 192.194 146.539 192.194Z" fill="url(#paint4_linear_418_96)"/>
<defs>
<linearGradient id="paint0_linear_418_96" x1="128.858" y1="173.713" x2="164.806" y2="172.772" gradientUnits="userSpaceOnUse">
<stop stop-color="#539CD0"/>
<stop offset="1" stop-color="#75C1E5"/>
</linearGradient>
<linearGradient id="paint1_linear_418_96" x1="68.128" y1="87.7106" x2="78.8082" y2="87.3122" gradientUnits="userSpaceOnUse">
<stop stop-color="#539CD0"/>
<stop offset="1" stop-color="#75C1E5"/>
</linearGradient>
<linearGradient id="paint2_linear_418_96" x1="57.761" y1="65.6095" x2="61.6138" y2="65.5388" gradientUnits="userSpaceOnUse">
<stop stop-color="#539CD0"/>
<stop offset="1" stop-color="#75C1E5"/>
</linearGradient>
<linearGradient id="paint3_linear_418_96" x1="85.22" y1="65.6095" x2="89.0728" y2="65.5388" gradientUnits="userSpaceOnUse">
<stop stop-color="#539CD0"/>
<stop offset="1" stop-color="#75C1E5"/>
</linearGradient>
<linearGradient id="paint4_linear_418_96" x1="52.3348" y1="173.58" x2="150.959" y2="171.768" gradientUnits="userSpaceOnUse">
<stop stop-color="#539CD0"/>
<stop offset="1" stop-color="#75C1E5"/>
</linearGradient>
</defs>
</svg>
