<svg width="201" height="201" viewBox="0 0 201 201" fill="none" xmlns="http://www.w3.org/2000/svg">
<path d="M179.095 129.306H170.073C167.916 129.306 166.07 131.19 166.07 133.348V137.27C166.07 146.756 159.429 154.691 150.444 156.507V137.119H154.645C156.802 137.119 158.552 135.369 158.552 133.212C158.552 131.055 156.802 129.306 154.645 129.306H138.824C136.667 129.306 134.918 131.055 134.918 133.212C134.918 135.369 136.667 137.119 138.824 137.119H142.631V156.507C133.646 154.69 127.004 146.756 127.004 137.27V133.347C127.004 131.19 125.161 129.305 123.004 129.305H113.982C111.825 129.305 110.076 131.055 110.076 133.212C110.076 135.369 111.825 137.118 113.982 137.118H119.191V137.27C119.191 151.075 129.348 162.526 142.631 164.429V172.668H138.824C136.667 172.668 134.918 174.417 134.918 176.575C134.918 178.732 136.667 180.481 138.824 180.481H154.645C156.802 180.481 158.552 178.732 158.552 176.575C158.552 174.417 156.802 172.668 154.645 172.668H150.444V164.429C163.726 162.526 173.979 151.075 173.979 137.27L179.095 137.254C181.252 137.254 183.001 135.437 183.001 133.28C183.002 131.123 181.253 129.306 179.095 129.306Z" fill="white"/>
<path d="M77.5565 79.5934C75.2552 81.8939 71.5124 81.8939 69.213 79.5934C67.6871 78.0682 65.2143 78.0682 63.688 79.5934C62.1625 81.1188 62.1625 83.5925 63.688 85.1183C69.0337 90.4644 77.7335 90.4656 83.0807 85.1183C84.6066 83.5928 84.6066 81.1196 83.0811 79.5937C81.556 78.0686 79.082 78.0682 77.5565 79.5934Z" fill="white"/>
<path d="M59.6553 66.6487C61.8128 66.6487 63.5618 64.8997 63.5618 62.7421C63.5618 60.5846 61.8128 58.8356 59.6553 58.8356C57.4978 58.8356 55.7487 60.5846 55.7487 62.7421C55.7487 64.8997 57.4978 66.6487 59.6553 66.6487Z" fill="white"/>
<path d="M87.1143 66.6487C89.2718 66.6487 91.0208 64.8997 91.0208 62.7421C91.0208 60.5846 89.2718 58.8356 87.1143 58.8356C84.9567 58.8356 83.2077 60.5846 83.2077 62.7421C83.2077 64.8997 84.9567 66.6487 87.1143 66.6487Z" fill="white"/>
<path d="M146.489 91.3934C139.347 91.3934 132.474 92.7817 126.224 95.2983V52.9372C126.224 23.4891 102.461 0 73.3117 0C44.1222 0 20.3569 23.7473 20.3569 52.9372V129.767C8.24672 138.323 0.824341 152.183 0.824341 167.277V196.107C0.824341 198.264 2.58462 200.014 4.7418 200.014H146.539C176.486 200.014 200.824 175.65 200.824 145.704C200.824 115.757 176.436 91.3934 146.489 91.3934ZM73.3336 7.81303C98.1263 7.81303 118.41 27.8437 118.41 52.9372V99.2017C109.816 104.541 102.497 112.508 97.8818 121.493H89.1112V106.334C101.612 100.405 110.597 87.4919 110.597 72.5495V47.0536C110.597 44.8964 108.865 43.1471 106.708 43.1471C97.6665 43.1471 88.9561 39.8594 82.1662 33.8898L75.9596 28.4297C74.4782 27.1276 72.2609 27.1335 70.7873 28.4441L64.8143 33.6668C58.0001 39.7238 49.228 42.9717 40.1114 42.9717H40.0438C37.8866 42.9717 35.983 44.8964 35.983 47.0536V72.5495C35.983 87.4919 44.968 100.405 57.8595 106.334V121.493H46.5157C40.1899 121.493 34.0293 122.901 28.1696 125.398V52.9372C28.17 28.0554 48.4522 7.81303 73.3336 7.81303ZM73.2898 101.984C57.0598 101.984 43.796 88.7795 43.796 72.5491V50.7964C53.5623 49.9741 62.6442 46.0684 69.9287 39.5933L73.3605 36.5771L76.9795 39.757C84.2132 46.1168 93.4084 49.9612 102.784 50.7902V72.5487C102.784 88.7799 89.5202 101.984 73.2898 101.984ZM65.6725 108.96C68.0164 109.507 70.7893 109.797 73.4852 109.797C76.1814 109.797 78.564 109.507 81.2986 108.96V124.09C77.3921 128.608 69.579 128.613 65.6725 124.09V108.96ZM32.0765 192.201V176.495C32.0765 174.338 30.3271 172.588 28.17 172.588C26.0128 172.588 24.2634 174.338 24.2634 176.495V192.201H8.63737V167.277C8.63737 145.812 26.1628 129.306 46.5161 129.306H59.6565C59.7045 129.306 59.751 129.352 59.7987 129.351C67.1398 137.232 79.5914 137.259 86.9716 129.338C87.0193 129.339 87.0658 129.306 87.1138 129.306H94.7272C93.1053 134.385 92.2286 139.978 92.2286 145.652C92.2286 165.347 102.767 182.678 118.501 192.201H32.0765V192.201ZM146.539 192.201C120.9 192.201 100.042 171.342 100.042 145.704C100.042 120.066 120.901 99.2068 146.539 99.2068C172.177 99.2068 193.036 120.066 193.036 145.704C193.036 171.342 172.177 192.201 146.539 192.201Z" fill="white"/>
</svg>
