<svg width="19" height="19" viewBox="0 0 19 19" fill="none" xmlns="http://www.w3.org/2000/svg">
<g opacity="0.5">
<path d="M1.59998 7.67405C1.59998 11.3213 4.61455 13.2648 6.82127 15.0044C7.59998 15.6182 8.34998 16.1962 9.09998 16.1962C9.84998 16.1962 10.6 15.6182 11.3787 15.0044C13.5854 13.2648 16.6 11.3213 16.6 7.67405C16.6 4.02685 12.4749 1.44033 9.09998 4.9467C5.7251 1.44033 1.59998 4.02685 1.59998 7.67405Z" fill="white"/>
<path d="M1.59998 7.67405C1.59998 11.3213 4.61455 13.2648 6.82127 15.0044C7.59998 15.6182 8.34998 16.1962 9.09998 16.1962C9.84998 16.1962 10.6 15.6182 11.3787 15.0044C13.5854 13.2648 16.6 11.3213 16.6 7.67405C16.6 4.02685 12.4749 1.44033 9.09998 4.9467C5.7251 1.44033 1.59998 4.02685 1.59998 7.67405Z" fill="url(#paint0_linear_324_1605)"/>
</g>
<path d="M12.475 10.7866C10.6188 8.74979 8.34998 10.2523 8.34998 12.3709C8.34998 14.308 9.73611 15.4178 10.9013 16.3661C11.0105 16.455 11.1177 16.5424 11.2217 16.629C11.65 16.9855 12.0625 17.3213 12.475 17.3213C12.8875 17.3213 13.3 16.9855 13.7283 16.629C14.942 15.6185 16.6 14.4895 16.6 12.3709C16.6 11.6749 16.3551 11.0454 15.9605 10.586C15.1538 9.64707 13.7214 9.41891 12.475 10.7866Z" fill="white"/>
<path d="M12.475 10.7866C10.6188 8.74979 8.34998 10.2523 8.34998 12.3709C8.34998 14.308 9.73611 15.4178 10.9013 16.3661C11.0105 16.455 11.1177 16.5424 11.2217 16.629C11.65 16.9855 12.0625 17.3213 12.475 17.3213C12.8875 17.3213 13.3 16.9855 13.7283 16.629C14.942 15.6185 16.6 14.4895 16.6 12.3709C16.6 11.6749 16.3551 11.0454 15.9605 10.586C15.1538 9.64707 13.7214 9.41891 12.475 10.7866Z" fill="url(#paint1_linear_324_1605)"/>
<defs>
<linearGradient id="paint0_linear_324_1605" x1="9.09998" y1="3.28491" x2="9.09998" y2="16.1962" gradientUnits="userSpaceOnUse">
<stop stop-color="#539CD0"/>
<stop offset="1" stop-color="#75C1E5"/>
</linearGradient>
<linearGradient id="paint1_linear_324_1605" x1="12.475" y1="9.82129" x2="12.475" y2="17.3213" gradientUnits="userSpaceOnUse">
<stop stop-color="#539CD0"/>
<stop offset="1" stop-color="#75C1E5"/>
</linearGradient>
</defs>
</svg>
