<svg width="130" height="130" viewBox="0 0 130 130" fill="none" xmlns="http://www.w3.org/2000/svg">
<path d="M127.461 26.7483C128.863 26.7483 130 25.6113 130 24.2092V14.0116C130 12.6093 128.863 11.4725 127.461 11.4725H2.53906C1.13674 11.4725 0 12.6093 0 14.0116V24.2092C0 25.6113 1.13674 26.7483 2.53906 26.7483H10.1976V67.8803C5.8048 69.0115 2.54947 73.0062 2.54947 77.7471C2.54947 82.4881 5.8048 86.4828 10.1976 87.6139V98.1528H10.1562C4.55609 98.1528 0 102.709 0 108.309V115.988C0 117.391 1.13674 118.528 2.53906 118.528H127.461C128.863 118.528 130 117.391 130 115.988V108.309C130 102.709 125.444 98.1528 119.844 98.1528H119.802V26.7483H127.461ZM5.07812 16.5507H124.922V21.6702C119.098 21.6702 15.6536 21.6702 5.07812 21.6702V16.5507ZM99.4172 72.638C102.235 72.638 104.527 74.9298 104.527 77.7471C104.527 80.5645 102.235 82.8562 99.4172 82.8562C96.5999 82.8562 94.3081 80.5645 94.3081 77.7471C94.3081 74.9298 96.5999 72.638 99.4172 72.638ZM96.8782 67.8803C94.869 68.3976 93.0998 69.5158 91.7691 71.0288C90.4384 69.5158 88.6689 68.3976 86.6597 67.8803V26.7483H96.8782V67.8803ZM38.2309 72.638C41.0483 72.638 43.3403 74.9298 43.3403 77.7471C43.3403 80.5645 41.0483 82.8562 38.2309 82.8562C35.4136 82.8562 33.1218 80.5645 33.1218 77.7471C33.1218 74.9298 35.4138 72.638 38.2309 72.638ZM40.77 67.8803V26.7483H50.9884V67.8803C48.9793 68.3976 47.2101 69.5158 45.8793 71.0288C44.5486 69.5158 42.7794 68.3976 40.77 67.8803ZM53.5275 72.638C56.3448 72.638 58.6366 74.9298 58.6366 77.7471C58.6366 80.5645 56.3448 82.8562 53.5275 82.8562C50.7102 82.8562 48.4184 80.5645 48.4184 77.7471C48.4184 74.9298 50.7104 72.638 53.5275 72.638ZM56.0666 67.8803V26.7483H66.285V67.8803C64.2756 68.3976 62.5064 69.5158 61.1757 71.0288C59.8452 69.5158 58.076 68.3976 56.0666 67.8803ZM68.8241 72.638C71.6414 72.638 73.9332 74.9298 73.9332 77.7471C73.9332 80.5645 71.6414 82.8562 68.8241 82.8562C66.0067 82.8562 63.7147 80.5645 63.7147 77.7471C63.7147 74.9298 66.007 72.638 68.8241 72.638ZM71.3631 67.8803V26.7483H81.5813V67.8803C79.5722 68.3976 77.803 69.5158 76.4723 71.0288C75.1418 69.5158 73.3726 68.3976 71.3631 67.8803ZM84.1207 72.638C86.938 72.638 89.23 74.9298 89.23 77.7471C89.23 80.5645 86.938 82.8562 84.1207 82.8562C81.3033 82.8562 79.0116 80.5645 79.0116 77.7471C79.0116 74.9298 81.3033 72.638 84.1207 72.638ZM23.3221 26.7483L15.2758 53.0934V26.7483H23.3221ZM7.6276 77.7471C7.6276 74.9326 9.91504 72.6429 12.7286 72.6383C15.7115 72.6693 17.8461 75.0522 17.8461 77.7471C17.8461 80.5645 15.554 82.8562 12.7367 82.8562C9.91936 82.8562 7.6276 80.5645 7.6276 77.7471ZM124.922 108.309V113.449H5.07812V108.309C5.07812 105.509 7.35617 103.231 10.1562 103.231H119.844C122.644 103.231 124.922 105.509 124.922 108.309ZM114.724 98.1528H15.2758V87.6139C19.6686 86.4828 22.9242 82.4878 22.9242 77.7471C22.9242 73.272 20.022 69.4642 16.0019 68.0997L28.6315 26.748H35.6919V67.8801C31.299 69.0112 28.0437 73.006 28.0437 77.7469C28.0437 83.3641 32.6138 87.9341 38.2309 87.9341C41.2758 87.9341 44.0108 86.5897 45.8793 84.4652C49.9441 89.0869 57.105 89.0937 61.1757 84.4652C65.2488 89.0962 72.4098 89.0846 76.4723 84.4652C80.5452 89.0962 87.7063 89.0843 91.7688 84.4652C93.6371 86.5897 96.3724 87.9341 99.417 87.9341C105.034 87.9341 109.604 83.3641 109.604 77.7469C109.604 73.006 106.349 69.011 101.956 67.8801V26.7483H114.724V98.1528H114.724Z" fill="black"/>
<path d="M127.461 26.7483C128.863 26.7483 130 25.6113 130 24.2092V14.0116C130 12.6093 128.863 11.4725 127.461 11.4725H2.53906C1.13674 11.4725 0 12.6093 0 14.0116V24.2092C0 25.6113 1.13674 26.7483 2.53906 26.7483H10.1976V67.8803C5.8048 69.0115 2.54947 73.0062 2.54947 77.7471C2.54947 82.4881 5.8048 86.4828 10.1976 87.6139V98.1528H10.1562C4.55609 98.1528 0 102.709 0 108.309V115.988C0 117.391 1.13674 118.528 2.53906 118.528H127.461C128.863 118.528 130 117.391 130 115.988V108.309C130 102.709 125.444 98.1528 119.844 98.1528H119.802V26.7483H127.461ZM5.07812 16.5507H124.922V21.6702C119.098 21.6702 15.6536 21.6702 5.07812 21.6702V16.5507ZM99.4172 72.638C102.235 72.638 104.527 74.9298 104.527 77.7471C104.527 80.5645 102.235 82.8562 99.4172 82.8562C96.5999 82.8562 94.3081 80.5645 94.3081 77.7471C94.3081 74.9298 96.5999 72.638 99.4172 72.638ZM96.8782 67.8803C94.869 68.3976 93.0998 69.5158 91.7691 71.0288C90.4384 69.5158 88.6689 68.3976 86.6597 67.8803V26.7483H96.8782V67.8803ZM38.2309 72.638C41.0483 72.638 43.3403 74.9298 43.3403 77.7471C43.3403 80.5645 41.0483 82.8562 38.2309 82.8562C35.4136 82.8562 33.1218 80.5645 33.1218 77.7471C33.1218 74.9298 35.4138 72.638 38.2309 72.638ZM40.77 67.8803V26.7483H50.9884V67.8803C48.9793 68.3976 47.2101 69.5158 45.8793 71.0288C44.5486 69.5158 42.7794 68.3976 40.77 67.8803ZM53.5275 72.638C56.3448 72.638 58.6366 74.9298 58.6366 77.7471C58.6366 80.5645 56.3448 82.8562 53.5275 82.8562C50.7102 82.8562 48.4184 80.5645 48.4184 77.7471C48.4184 74.9298 50.7104 72.638 53.5275 72.638ZM56.0666 67.8803V26.7483H66.285V67.8803C64.2756 68.3976 62.5064 69.5158 61.1757 71.0288C59.8452 69.5158 58.076 68.3976 56.0666 67.8803ZM68.8241 72.638C71.6414 72.638 73.9332 74.9298 73.9332 77.7471C73.9332 80.5645 71.6414 82.8562 68.8241 82.8562C66.0067 82.8562 63.7147 80.5645 63.7147 77.7471C63.7147 74.9298 66.007 72.638 68.8241 72.638ZM71.3631 67.8803V26.7483H81.5813V67.8803C79.5722 68.3976 77.803 69.5158 76.4723 71.0288C75.1418 69.5158 73.3726 68.3976 71.3631 67.8803ZM84.1207 72.638C86.938 72.638 89.23 74.9298 89.23 77.7471C89.23 80.5645 86.938 82.8562 84.1207 82.8562C81.3033 82.8562 79.0116 80.5645 79.0116 77.7471C79.0116 74.9298 81.3033 72.638 84.1207 72.638ZM23.3221 26.7483L15.2758 53.0934V26.7483H23.3221ZM7.6276 77.7471C7.6276 74.9326 9.91504 72.6429 12.7286 72.6383C15.7115 72.6693 17.8461 75.0522 17.8461 77.7471C17.8461 80.5645 15.554 82.8562 12.7367 82.8562C9.91936 82.8562 7.6276 80.5645 7.6276 77.7471ZM124.922 108.309V113.449H5.07812V108.309C5.07812 105.509 7.35617 103.231 10.1562 103.231H119.844C122.644 103.231 124.922 105.509 124.922 108.309ZM114.724 98.1528H15.2758V87.6139C19.6686 86.4828 22.9242 82.4878 22.9242 77.7471C22.9242 73.272 20.022 69.4642 16.0019 68.0997L28.6315 26.748H35.6919V67.8801C31.299 69.0112 28.0437 73.006 28.0437 77.7469C28.0437 83.3641 32.6138 87.9341 38.2309 87.9341C41.2758 87.9341 44.0108 86.5897 45.8793 84.4652C49.9441 89.0869 57.105 89.0937 61.1757 84.4652C65.2488 89.0962 72.4098 89.0846 76.4723 84.4652C80.5452 89.0962 87.7063 89.0843 91.7688 84.4652C93.6371 86.5897 96.3724 87.9341 99.417 87.9341C105.034 87.9341 109.604 83.3641 109.604 77.7469C109.604 73.006 106.349 69.011 101.956 67.8801V26.7483H114.724V98.1528H114.724Z" fill="url(#paint0_linear_230_723)"/>
<defs>
<linearGradient id="paint0_linear_230_723" x1="33.4818" y1="104.383" x2="97.5773" y2="102.953" gradientUnits="userSpaceOnUse">
<stop stop-color="#539CD0"/>
<stop offset="1" stop-color="#75C1E5"/>
</linearGradient>
</defs>
</svg>
