<svg width="200" height="201" viewBox="0 0 200 201" fill="none" xmlns="http://www.w3.org/2000/svg">
<path d="M178.271 129.306H169.249C167.091 129.306 165.245 131.19 165.245 133.348V137.27C165.245 146.756 158.604 154.691 149.619 156.507V137.119H153.821C155.978 137.119 157.727 135.369 157.727 133.212C157.727 131.055 155.978 129.306 153.821 129.306H138C135.843 129.306 134.094 131.055 134.094 133.212C134.094 135.369 135.843 137.119 138 137.119H141.806V156.507C132.821 154.69 126.18 146.756 126.18 137.27V133.347C126.18 131.19 124.337 129.305 122.179 129.305H113.158C111.001 129.305 109.251 131.055 109.251 133.212C109.251 135.369 111.001 137.118 113.158 137.118H118.367V137.27C118.367 151.075 128.524 162.526 141.806 164.429V172.668H138C135.843 172.668 134.094 174.417 134.094 176.575C134.094 178.732 135.843 180.481 138 180.481H153.821C155.978 180.481 157.727 178.732 157.727 176.575C157.727 174.417 155.978 172.668 153.821 172.668H149.619V164.429C162.901 162.526 173.155 151.075 173.155 137.27L178.27 137.254C180.428 137.254 182.177 135.437 182.177 133.28C182.177 131.123 180.428 129.306 178.271 129.306Z" fill="white"/>
<path d="M76.7321 79.5934C74.4308 81.8939 70.688 81.8939 68.3886 79.5934C66.8627 78.0682 64.3899 78.0682 62.8636 79.5934C61.3381 81.1188 61.3381 83.5925 62.8636 85.1183C68.2093 90.4644 76.9091 90.4656 82.2563 85.1183C83.7822 83.5928 83.7822 81.1196 82.2567 79.5937C80.7316 78.0686 78.2576 78.0682 76.7321 79.5934Z" fill="white"/>
<path d="M58.831 66.6487C60.9885 66.6487 62.7375 64.8997 62.7375 62.7421C62.7375 60.5846 60.9885 58.8356 58.831 58.8356C56.6734 58.8356 54.9244 60.5846 54.9244 62.7421C54.9244 64.8997 56.6734 66.6487 58.831 66.6487Z" fill="white"/>
<path d="M86.2899 66.6487C88.4474 66.6487 90.1965 64.8997 90.1965 62.7421C90.1965 60.5846 88.4474 58.8356 86.2899 58.8356C84.1324 58.8356 82.3834 60.5846 82.3834 62.7421C82.3834 64.8997 84.1324 66.6487 86.2899 66.6487Z" fill="white"/>
<path d="M145.665 91.3934C138.523 91.3934 131.65 92.7817 125.399 95.2983V52.9372C125.399 23.4891 101.636 0 72.4874 0C43.2979 0 19.5326 23.7473 19.5326 52.9372V129.767C7.42238 138.323 0 152.183 0 167.277V196.107C0 198.264 1.76028 200.014 3.91746 200.014H145.715C175.661 200.014 200 175.65 200 145.704C200 115.757 175.612 91.3934 145.665 91.3934ZM72.5092 7.81303C97.302 7.81303 117.586 27.8437 117.586 52.9372V99.2017C108.991 104.541 101.672 112.508 97.0574 121.493H88.2869V106.334C100.788 100.405 109.773 87.4919 109.773 72.5495V47.0536C109.773 44.8964 108.041 43.1471 105.884 43.1471C96.8422 43.1471 88.1318 39.8594 81.3419 33.8898L75.1352 28.4297C73.6539 27.1276 71.4365 27.1335 69.963 28.4441L63.9899 33.6668C57.1758 39.7238 48.4037 42.9717 39.2871 42.9717H39.2195C37.0623 42.9717 35.1587 44.8964 35.1587 47.0536V72.5495C35.1587 87.4919 44.1436 100.405 57.0351 106.334V121.493H45.6914C39.3656 121.493 33.205 122.901 27.3452 125.398V52.9372C27.3456 28.0554 47.6279 7.81303 72.5092 7.81303ZM72.4655 101.984C56.2355 101.984 42.9717 88.7795 42.9717 72.5491V50.7964C52.738 49.9741 61.8198 46.0684 69.1043 39.5933L72.5362 36.5771L76.1552 39.757C83.3889 46.1168 92.5841 49.9612 101.96 50.7902V72.5487C101.96 88.7799 88.6959 101.984 72.4655 101.984ZM64.8482 108.96C67.1921 109.507 69.9649 109.797 72.6608 109.797C75.3571 109.797 77.7397 109.507 80.4743 108.96V124.09C76.5677 128.608 68.7547 128.613 64.8482 124.09V108.96ZM31.2521 192.201V176.495C31.2521 174.338 29.5028 172.588 27.3456 172.588C25.1884 172.588 23.4391 174.338 23.4391 176.495V192.201H7.81303V167.277C7.81303 145.812 25.3385 129.306 45.6918 129.306H58.8321C58.8802 129.306 58.9267 129.352 58.9743 129.351C66.3155 137.232 78.7671 137.259 86.1473 129.338C86.1949 129.339 86.2414 129.306 86.2895 129.306H93.9029C92.2809 134.385 91.4043 139.978 91.4043 145.652C91.4043 165.347 101.943 182.678 117.677 192.201H31.2521V192.201ZM145.714 192.201C120.076 192.201 99.2173 171.342 99.2173 145.704C99.2173 120.066 120.076 99.2068 145.714 99.2068C171.352 99.2068 192.211 120.066 192.211 145.704C192.211 171.342 171.353 192.201 145.714 192.201Z" fill="white"/>
</svg>
