<svg width="51" height="50" viewBox="0 0 51 50" fill="none" xmlns="http://www.w3.org/2000/svg">
<rect x="0.225098" width="50" height="50" rx="10" fill="white"/>
<rect x="0.225098" width="50" height="50" rx="10" fill="url(#paint0_linear_340_852)"/>
<path d="M18.8084 10.01C14.2068 10.01 10.4751 13.7417 10.4751 18.3433V31.6767C10.4751 36.2783 14.2068 40.01 18.8084 40.01H32.1418C36.7434 40.01 40.4751 36.2783 40.4751 31.6767V18.3433C40.4751 13.7417 36.7434 10.01 32.1418 10.01H18.8084ZM35.4751 13.3433C36.3951 13.3433 37.1418 14.09 37.1418 15.01C37.1418 15.93 36.3951 16.6767 35.4751 16.6767C34.5551 16.6767 33.8084 15.93 33.8084 15.01C33.8084 14.09 34.5551 13.3433 35.4751 13.3433ZM25.4751 16.6767C30.0768 16.6767 33.8084 20.4083 33.8084 25.01C33.8084 29.6117 30.0768 33.3433 25.4751 33.3433C20.8734 33.3433 17.1418 29.6117 17.1418 25.01C17.1418 20.4083 20.8734 16.6767 25.4751 16.6767ZM25.4751 20.01C24.149 20.01 22.8772 20.5368 21.9396 21.4745C21.0019 22.4122 20.4751 23.6839 20.4751 25.01C20.4751 26.3361 21.0019 27.6079 21.9396 28.5455C22.8772 29.4832 24.149 30.01 25.4751 30.01C26.8012 30.01 28.073 29.4832 29.0106 28.5455C29.9483 27.6079 30.4751 26.3361 30.4751 25.01C30.4751 23.6839 29.9483 22.4122 29.0106 21.4745C28.073 20.5368 26.8012 20.01 25.4751 20.01Z" fill="white"/>
<defs>
<linearGradient id="paint0_linear_340_852" x1="25.2251" y1="0" x2="25.2251" y2="50" gradientUnits="userSpaceOnUse">
<stop stop-color="#539CD0"/>
<stop offset="1" stop-color="#75C1E5"/>
</linearGradient>
</defs>
</svg>
