<svg width="120" height="26" viewBox="0 0 120 26" fill="none" xmlns="http://www.w3.org/2000/svg">
<path d="M19.2163 11.5128C18.8915 11.8397 18.6427 12.2341 18.4878 12.668C18.3328 13.102 18.2754 13.5647 18.3198 14.0234L18.3043 14.008C18.3499 14.5479 18.2771 15.0911 18.091 15.6C17.9049 16.1088 17.61 16.5709 17.227 16.9541C16.8438 17.3371 16.3818 17.6321 15.8729 17.8181C15.3641 18.0041 14.8207 18.077 14.2809 18.0314L14.2963 18.0468C13.6506 17.9867 13.002 18.1272 12.4389 18.4493C11.8759 18.7713 11.4259 19.2591 11.1504 19.8462C10.8748 20.4334 10.7869 21.0911 10.8989 21.7301C11.0109 22.3689 11.3172 22.9577 11.776 23.4161C12.2348 23.8745 12.8238 24.1802 13.4628 24.2915C14.1018 24.403 14.7594 24.3145 15.3463 24.0384C15.9332 23.7623 16.4206 23.3119 16.7421 22.7486C17.0636 22.1853 17.2036 21.5366 17.1429 20.8908L17.1592 20.9063C17.1136 20.3664 17.1864 19.8231 17.3724 19.3142C17.5585 18.8054 17.8535 18.3433 18.2365 17.9602C18.6197 17.5771 19.0818 17.2822 19.5906 17.0962C20.0994 16.9101 20.6427 16.8372 21.1826 16.8828L21.1663 16.8674C21.6938 16.9148 22.2248 16.8283 22.71 16.6159C23.1952 16.4035 23.619 16.0721 23.9419 15.6523C24.2649 15.2326 24.4768 14.738 24.5577 14.2146C24.6387 13.6912 24.5862 13.1558 24.4052 12.658C24.2242 12.1602 23.9204 11.7162 23.5221 11.3671C23.1238 11.018 22.6438 10.7751 22.1266 10.6609C21.6094 10.5467 21.0717 10.5649 20.5634 10.7138C20.0551 10.8628 19.5927 11.1376 19.2189 11.5128H19.2163Z" fill="#777777"/>
<path d="M12.8932 16.0258L12.8769 16.0104C13.3357 16.0566 13.7991 16.0002 14.2336 15.8454C14.668 15.6906 15.0626 15.4413 15.3888 15.1153C15.715 14.7894 15.9648 14.3949 16.1198 13.9606C16.275 13.5263 16.3316 13.063 16.2858 12.6041L16.302 12.6195C16.2564 12.0796 16.3293 11.5363 16.5153 11.0274C16.7014 10.5186 16.9963 10.0566 17.3794 9.67341C17.7625 9.29035 18.2246 8.99541 18.7334 8.80941C19.2423 8.62329 19.7856 8.55049 20.3255 8.59607L20.3092 8.58064C20.955 8.64132 21.6038 8.50123 22.1671 8.17958C22.7305 7.85793 23.1809 7.37033 23.4569 6.7833C23.7329 6.19627 23.8211 5.53839 23.7095 4.89938C23.5979 4.26037 23.2919 3.67136 22.8331 3.21267C22.3745 2.75399 21.7854 2.44795 21.1464 2.33634C20.5074 2.22471 19.8496 2.31292 19.2625 2.58894C18.6755 2.86495 18.1879 3.31533 17.8662 3.87865C17.5446 4.44197 17.4045 5.0908 17.4652 5.73664L17.4498 5.72035C17.4954 6.26026 17.4228 6.80364 17.2368 7.31254C17.0508 7.82144 16.7558 8.28361 16.3728 8.66678C15.9896 9.04984 15.5274 9.34478 15.0186 9.53078C14.5096 9.71678 13.9662 9.78947 13.4263 9.74378L13.4418 9.76007C12.9829 9.71387 12.5195 9.77018 12.0851 9.92498C11.6507 10.0797 11.256 10.3291 10.9298 10.6551C10.6036 10.9811 10.3539 11.3755 10.1988 11.8098C10.0437 12.2442 9.98705 12.7074 10.0329 13.1664L10.0175 13.1509C10.0629 13.6908 9.98996 14.234 9.80387 14.7428C9.6177 15.2515 9.32284 15.7136 8.93979 16.0967C8.5567 16.4797 8.09466 16.7746 7.5859 16.9608C7.07713 17.1468 6.53388 17.2198 5.99405 17.1744L6.00947 17.1898C5.36363 17.1291 4.7148 17.2692 4.15148 17.5908C3.58817 17.9125 3.13778 18.4001 2.86177 18.9871C2.58575 19.5742 2.49754 20.232 2.60916 20.871C2.72079 21.51 3.02682 22.0991 3.48551 22.5577C3.9442 23.0165 4.53321 23.3225 5.17222 23.4341C5.81123 23.5457 6.46911 23.4575 7.05614 23.1815C7.64316 22.9055 8.13077 22.4551 8.45242 21.8918C8.7741 21.3284 8.91416 20.6796 8.85347 20.0338L8.86976 20.0492C8.82416 19.5093 8.89702 18.966 9.0831 18.4572C9.2691 17.9484 9.56405 17.4863 9.9471 17.1031C10.3302 16.7201 10.7923 16.4251 11.3011 16.2391C11.81 16.053 12.3533 15.9802 12.8932 16.0258Z" fill="#777777"/>
<path d="M7.14861 14.3054C7.47349 13.9786 7.72221 13.5842 7.87705 13.1502C8.03188 12.7162 8.089 12.2534 8.04433 11.7948L8.0606 11.8102C8.015 11.2702 8.08783 10.7267 8.27401 10.2177C8.46019 9.70878 8.75524 9.24661 9.13856 8.86346C9.52187 8.48034 9.98413 8.18549 10.4932 7.99953C11.0022 7.81357 11.5458 7.74097 12.0858 7.78681L12.0695 7.77138C12.7151 7.83187 13.3637 7.69173 13.9267 7.3701C14.4898 7.04847 14.9399 6.56099 15.2158 5.97415C15.4916 5.3873 15.5797 4.72965 15.4681 4.09088C15.3565 3.45212 15.0505 2.86333 14.592 2.40481C14.1336 1.94629 13.5447 1.64036 12.906 1.52874C12.2672 1.41711 11.6095 1.50524 11.0227 1.78109C10.4358 2.05694 9.94839 2.50708 9.62679 3.07014C9.3051 3.6332 9.16496 4.28176 9.22547 4.92738L9.21004 4.91195C9.25564 5.45182 9.18279 5.99514 8.9967 6.50397C8.81061 7.01281 8.51577 7.4749 8.13266 7.85801C7.74956 8.24112 7.28746 8.536 6.77863 8.72203C6.26979 8.90812 5.72648 8.98098 5.18661 8.93538L5.20204 8.95081C4.67453 8.90349 4.14361 8.99015 3.65848 9.20264C3.17336 9.41512 2.74971 9.74666 2.42682 10.1665C2.10392 10.5862 1.89223 11.0808 1.81133 11.6042C1.73044 12.1276 1.78298 12.663 1.96406 13.1607C2.14515 13.6584 2.44895 14.1023 2.84729 14.4513C3.24563 14.8005 3.72563 15.0433 4.24281 15.1575C4.75999 15.2715 5.29761 15.2533 5.80587 15.1044C6.31412 14.9554 6.77655 14.6806 7.15032 14.3054H7.14861Z" fill="#777777"/>
<path d="M33.7003 5.75635H36.246V18.1446H33.7003V5.75635Z" fill="#777777"/>
<path d="M37.6877 13.9026C37.6842 13.0124 37.945 12.141 38.437 11.3991C38.929 10.6571 39.6301 10.0779 40.4516 9.73477C41.2731 9.39157 42.1779 9.29994 43.0515 9.47146C43.9251 9.64297 44.7281 10.0698 45.3589 10.6981C45.9897 11.3263 46.4198 12.1277 46.5948 13.0006C46.7699 13.8735 46.6818 14.7787 46.342 15.6016C46.0021 16.4243 45.4257 17.1279 44.6857 17.6228C43.9457 18.1178 43.0755 18.3821 42.1852 18.3821C41.5943 18.3888 41.0079 18.2777 40.4603 18.0551C39.9128 17.8326 39.4151 17.5032 38.9964 17.0862C38.5776 16.6691 38.2463 16.1728 38.0216 15.6262C37.7969 15.0796 37.6834 14.4936 37.6877 13.9026ZM44.1369 13.9026C44.1263 13.5189 44.0027 13.1468 43.7819 12.8328C43.5609 12.5189 43.2523 12.2771 42.8947 12.1376C42.537 11.9981 42.1463 11.967 41.7711 12.0485C41.3959 12.1299 41.0531 12.32 40.7854 12.5952C40.5178 12.8704 40.3371 13.2184 40.2662 13.5957C40.1952 13.9729 40.237 14.3627 40.3864 14.7164C40.5358 15.0701 40.7861 15.3718 41.1059 15.5839C41.4259 15.7961 41.8013 15.9092 42.1852 15.9092C42.4481 15.9162 42.7096 15.8687 42.9533 15.7696C43.1969 15.6705 43.4173 15.522 43.6007 15.3335C43.784 15.145 43.9264 14.9205 44.0186 14.6742C44.1109 14.428 44.1512 14.1653 44.1369 13.9026Z" fill="#777777"/>
<path d="M56.8286 9.65983V17.717C56.8286 20.5678 54.6052 21.773 52.3483 21.773C51.5538 21.8325 50.7581 21.6719 50.0486 21.3091C49.3393 20.9462 48.7435 20.3949 48.3266 19.7158L50.4986 18.4601C50.6738 18.8141 50.953 19.1061 51.2987 19.2972C51.6445 19.4882 52.0403 19.5691 52.4332 19.529C52.6843 19.5638 52.9401 19.5417 53.1816 19.4643C53.4229 19.3869 53.6439 19.2561 53.828 19.0819C54.0121 18.9075 54.1547 18.6941 54.2452 18.4572C54.3356 18.2204 54.3716 17.9662 54.3506 17.7135V16.9378C54.0525 17.3025 53.6731 17.5923 53.2428 17.7839C52.8124 17.9755 52.3432 18.0635 51.8726 18.041C50.753 18.0057 49.6911 17.5361 48.9116 16.7316C48.1321 15.9272 47.6963 14.8509 47.6963 13.7308C47.6963 12.6107 48.1321 11.5345 48.9116 10.7301C49.6911 9.92555 50.753 9.45601 51.8726 9.42069C52.3432 9.39815 52.8124 9.48618 53.2428 9.67775C53.6731 9.86932 54.0525 10.1591 54.3506 10.5238V9.65812L56.8286 9.65983ZM54.3515 13.7321C54.3686 13.3219 54.2625 12.9159 54.0469 12.5664C53.8314 12.2169 53.5161 11.9399 53.1418 11.7711C52.7675 11.6023 52.3513 11.5494 51.9466 11.6192C51.5419 11.6889 51.1675 11.8782 50.8712 12.1627C50.5751 12.4471 50.3708 12.8136 50.2847 13.2151C50.1986 13.6166 50.2346 14.0347 50.3882 14.4155C50.5417 14.7963 50.8057 15.1226 51.1462 15.3521C51.4867 15.5817 51.8881 15.7041 52.2986 15.7035C52.5661 15.7222 52.8345 15.6847 53.0866 15.5933C53.3387 15.5019 53.5688 15.3587 53.7622 15.1731C53.9556 14.9873 54.108 14.7632 54.2095 14.5149C54.3109 14.2668 54.3594 14.0001 54.3515 13.7321Z" fill="#777777"/>
<path d="M58.2703 13.9026C58.2667 13.0124 58.5274 12.141 59.0195 11.3991C59.5115 10.6571 60.2126 10.0779 61.0341 9.73477C61.8556 9.39157 62.7604 9.29994 63.634 9.47146C64.5076 9.64297 65.3107 10.0698 65.9414 10.6981C66.5722 11.3263 67.0023 12.1277 67.1773 13.0006C67.3524 13.8735 67.2643 14.7787 66.9245 15.6016C66.5846 16.4243 66.0082 17.1279 65.2682 17.6228C64.5282 18.1178 63.658 18.3821 62.7677 18.3821C62.1768 18.3888 61.5903 18.2777 61.0429 18.0551C60.4953 17.8326 59.9977 17.5032 59.5789 17.0862C59.1601 16.6691 58.8288 16.1728 58.6041 15.6262C58.3794 15.0796 58.2659 14.4936 58.2703 13.9026ZM64.7194 13.9026C64.7088 13.5189 64.5853 13.1468 64.3644 12.8328C64.1434 12.5189 63.8348 12.2771 63.4772 12.1376C63.1195 11.9981 62.7287 11.967 62.3536 12.0485C61.9784 12.1299 61.6356 12.32 61.3679 12.5952C61.1003 12.8704 60.9196 13.2184 60.8486 13.5957C60.7777 13.9729 60.8195 14.3627 60.9689 14.7164C61.1183 15.0701 61.3686 15.3718 61.6885 15.5839C62.0084 15.7961 62.3838 15.9092 62.7677 15.9092C63.0306 15.9162 63.2921 15.8687 63.5357 15.7696C63.7794 15.6705 63.9998 15.522 64.1832 15.3335C64.3665 15.145 64.5089 14.9205 64.6011 14.6742C64.6934 14.428 64.7337 14.1653 64.7194 13.9026Z" fill="#777777"/>
<path d="M68.4523 7.38583C68.4523 7.08373 68.5418 6.78842 68.7097 6.53724C68.8775 6.28605 69.1161 6.09027 69.3952 5.97467C69.6743 5.85906 69.9814 5.82881 70.2777 5.88775C70.574 5.94669 70.8462 6.09216 71.0598 6.30578C71.2734 6.51939 71.4188 6.79155 71.4778 7.08784C71.5367 7.38413 71.5064 7.69125 71.3909 7.97035C71.2753 8.24945 71.0795 8.488 70.8283 8.65586C70.5771 8.82369 70.2818 8.91326 69.9797 8.91326C69.5759 8.90923 69.1897 8.74706 68.9041 8.46144C68.6186 8.17586 68.4563 7.78968 68.4523 7.38583ZM68.7094 9.65983H71.256V18.1455H68.706L68.7094 9.65983Z" fill="#777777"/>
<path d="M82.248 13.9025C82.2774 14.4633 82.1957 15.0244 82.0074 15.5535C81.8193 16.0826 81.5284 16.5693 81.1514 16.9856C80.7745 17.4019 80.319 17.7396 79.8111 17.9792C79.3032 18.2188 78.753 18.3557 78.192 18.3819C77.7202 18.4076 77.2487 18.3281 76.8114 18.149C76.3742 17.9699 75.9824 17.6958 75.6642 17.3465V21.5388H73.1185V9.65963H75.6642V10.4568C75.9825 10.1077 76.3745 9.83381 76.8116 9.65492C77.2488 9.47595 77.7203 9.39649 78.192 9.42221C78.753 9.44835 79.3034 9.58515 79.8114 9.82481C80.3195 10.0645 80.775 10.4022 81.152 10.8186C81.529 11.235 81.8199 11.7218 82.008 12.2511C82.196 12.7803 82.2776 13.3416 82.248 13.9025ZM79.7022 13.9025C79.6923 13.5054 79.5654 13.12 79.3375 12.7945C79.1096 12.4692 78.7908 12.2182 78.4211 12.0732C78.0512 11.9281 77.6468 11.8952 77.2584 11.9789C76.8701 12.0625 76.515 12.2587 76.2377 12.5431C75.9603 12.8276 75.773 13.1875 75.6992 13.5779C75.6254 13.9682 75.6684 14.3716 75.8227 14.7377C75.977 15.1038 76.236 15.4161 76.567 15.6358C76.898 15.8554 77.2864 15.9726 77.6837 15.9725C77.9564 15.9847 78.2286 15.939 78.4825 15.8385C78.7363 15.7381 78.9661 15.5851 79.1567 15.3897C79.3473 15.1942 79.4944 14.9607 79.5884 14.7044C79.6824 14.4481 79.7213 14.1748 79.7022 13.9025Z" fill="#777777"/>
<path d="M90.1037 15.5988C90.1037 17.5506 88.4075 18.382 86.5749 18.382C85.8343 18.449 85.0909 18.2925 84.4404 17.9324C83.7899 17.5724 83.2625 17.0256 82.926 16.3626L85.1315 15.1068C85.2207 15.4133 85.4123 15.6799 85.6744 15.8621C85.9363 16.0443 86.2535 16.1311 86.5715 16.108C87.1817 16.108 87.4877 15.9211 87.4877 15.5826C87.4877 14.6483 83.3126 15.1411 83.3126 12.2054C83.3126 10.3548 84.8743 9.42227 86.6392 9.42227C87.3026 9.40127 87.9592 9.55864 88.5412 9.87792C89.1232 10.1973 89.6092 10.6668 89.9477 11.2377L87.7757 12.4086C87.6806 12.1863 87.522 11.997 87.3197 11.8642C87.1175 11.7314 86.8809 11.6611 86.6392 11.662C86.1977 11.662 85.926 11.8334 85.926 12.1368C85.9295 13.1046 90.1037 12.4591 90.1037 15.5988Z" fill="#777777"/>
<path d="M99.4029 9.65967V18.1454H96.8572V17.3474C96.5632 17.6995 96.1903 17.977 95.7686 18.157C95.3469 18.337 94.8892 18.4144 94.4314 18.3828C92.7172 18.3828 91.26 17.1614 91.26 14.8685V9.65967H93.8057V14.4957C93.7843 14.6978 93.8074 14.9021 93.8734 15.0944C93.9386 15.2867 94.0457 15.4624 94.1863 15.6093C94.3269 15.7561 94.4974 15.8705 94.6869 15.9447C94.8754 16.0188 95.0786 16.0509 95.2817 16.0385C96.2152 16.0385 96.8597 15.496 96.8597 14.2908V9.66224L99.4029 9.65967Z" fill="#777777"/>
<path d="M114 12.9349V18.1447H111.454V13.1552C111.454 12.3067 111.047 11.7641 110.233 11.7641C109.384 11.7641 108.909 12.3581 108.909 13.3592V18.1447H106.364V13.1552C106.364 12.3067 105.957 11.7641 105.141 11.7641C104.293 11.7641 103.818 12.3581 103.818 13.3592V18.1447H101.272V9.65895H103.818V10.4389C104.082 10.0929 104.428 9.81846 104.825 9.64078C105.223 9.46301 105.658 9.38766 106.092 9.42152C106.527 9.40018 106.961 9.49215 107.351 9.68835C107.74 9.88446 108.072 10.1783 108.315 10.5409C108.597 10.1615 108.97 9.85978 109.401 9.664C109.831 9.46823 110.304 9.38483 110.775 9.42152C112.724 9.42238 114 10.8135 114 12.9349Z" fill="#777777"/>
<path d="M116.153 9.60739C117.196 9.60739 118.042 8.76156 118.042 7.71824C118.042 6.6749 117.196 5.8291 116.153 5.8291C115.11 5.8291 114.264 6.6749 114.264 7.71824C114.264 8.76156 115.11 9.60739 116.153 9.60739Z" fill="#777777"/>
</svg>
