<svg width="25" height="25" viewBox="0 0 25 25" fill="none" xmlns="http://www.w3.org/2000/svg">
<g opacity="0.5">
<path d="M8.5 7.25C5.60051 7.25 3.25 9.60051 3.25 12.5C3.25 15.3995 5.60051 17.75 8.5 17.75H9.5C9.91421 17.75 10.25 18.0858 10.25 18.5C10.25 18.9142 9.91421 19.25 9.5 19.25H8.5C4.77208 19.25 1.75 16.2279 1.75 12.5C1.75 8.77208 4.77208 5.75 8.5 5.75H9.5C9.91421 5.75 10.25 6.08579 10.25 6.5C10.25 6.91421 9.91421 7.25 9.5 7.25H8.5Z" fill="url(#paint0_linear_338_383)"/>
<path d="M15.5 5.75C15.0858 5.75 14.75 6.08579 14.75 6.5C14.75 6.91421 15.0858 7.25 15.5 7.25H16.5C19.3995 7.25 21.75 9.60051 21.75 12.5C21.75 15.3995 19.3995 17.75 16.5 17.75H15.5C15.0858 17.75 14.75 18.0858 14.75 18.5C14.75 18.9142 15.0858 19.25 15.5 19.25H16.5C20.2279 19.25 23.25 16.2279 23.25 12.5C23.25 8.77208 20.2279 5.75 16.5 5.75H15.5Z" fill="url(#paint1_linear_338_383)"/>
</g>
<path d="M8.75 12.5C8.75 12.0858 9.08579 11.75 9.5 11.75H15.5C15.9142 11.75 16.25 12.0858 16.25 12.5C16.25 12.9142 15.9142 13.25 15.5 13.25H9.5C9.08579 13.25 8.75 12.9142 8.75 12.5Z" fill="url(#paint2_linear_338_383)"/>
<defs>
<linearGradient id="paint0_linear_338_383" x1="10.7898" y1="20.0169" x2="23.3737" y2="19.9031" gradientUnits="userSpaceOnUse">
<stop stop-color="#539CD0"/>
<stop offset="1" stop-color="#75C1E5"/>
</linearGradient>
<linearGradient id="paint1_linear_338_383" x1="10.7898" y1="20.0169" x2="23.3737" y2="19.9031" gradientUnits="userSpaceOnUse">
<stop stop-color="#539CD0"/>
<stop offset="1" stop-color="#75C1E5"/>
</linearGradient>
<linearGradient id="paint2_linear_338_383" x1="11.9034" y1="13.3352" x2="16.29" y2="13.2108" gradientUnits="userSpaceOnUse">
<stop stop-color="#539CD0"/>
<stop offset="1" stop-color="#75C1E5"/>
</linearGradient>
</defs>
</svg>
