<svg width="30" height="93" viewBox="0 0 30 93" fill="none" xmlns="http://www.w3.org/2000/svg">
<path d="M15.8812 0.35524L16.8959 0.530925L17.2511 1.49754L16.5916 2.28846L15.5769 2.11278L15.2217 1.14617L15.8812 0.35524Z" fill="white"/>
<path d="M15.8812 0.35524L16.8959 0.530925L17.2511 1.49754L16.5916 2.28846L15.5769 2.11278L15.2217 1.14617L15.8812 0.35524Z" fill="url(#paint0_linear_262_496)"/>
<path d="M19.4347 5.73386L20.5334 5.71656L21.0522 6.63262L20.4723 7.56597L19.3736 7.58326L18.8548 6.66721L19.4347 5.73386Z" fill="white"/>
<path d="M19.4347 5.73386L20.5334 5.71656L21.0522 6.63262L20.4723 7.56597L19.3736 7.58326L18.8548 6.66721L19.4347 5.73386Z" fill="url(#paint1_linear_262_496)"/>
<path d="M22.6563 11.7039L23.9367 11.8537L24.3984 12.9993L23.5797 13.9951L22.2992 13.8453L21.8375 12.6997L22.6563 11.7039Z" fill="white"/>
<path d="M22.6563 11.7039L23.9367 11.8537L24.3984 12.9993L23.5797 13.9951L22.2992 13.8453L21.8375 12.6997L22.6563 11.7039Z" fill="url(#paint2_linear_262_496)"/>
<path d="M22.76 20.008L23.9142 19.3041L25.0358 19.9517L25.0033 21.3031L23.8492 22.0069L22.7275 21.3594L22.76 20.008Z" fill="white"/>
<path d="M22.76 20.008L23.9142 19.3041L25.0358 19.9517L25.0033 21.3031L23.8492 22.0069L22.7275 21.3594L22.76 20.008Z" fill="url(#paint3_linear_262_496)"/>
<path d="M20.9952 29.5701L21.5767 28.2678L22.9389 28.1591L23.7195 29.3527L23.138 30.6551L21.7759 30.7638L20.9952 29.5701Z" fill="white"/>
<path d="M20.9952 29.5701L21.5767 28.2678L22.9389 28.1591L23.7195 29.3527L23.138 30.6551L21.7759 30.7638L20.9952 29.5701Z" fill="url(#paint4_linear_262_496)"/>
<path d="M16.8396 38.5926L17.6659 37.0963L19.3186 37.0963L20.1449 38.5926L19.3186 40.0888L17.6659 40.0888L16.8396 38.5926Z" fill="white"/>
<path d="M16.8396 38.5926L17.6659 37.0963L19.3186 37.0963L20.1449 38.5926L19.3186 40.0888L17.6659 40.0888L16.8396 38.5926Z" fill="url(#paint5_linear_262_496)"/>
<path d="M13.0835 47.2312L13.8723 45.7999L15.4498 45.7999L16.2385 47.2312L15.4498 48.6624L13.8723 48.6624L13.0835 47.2312Z" fill="white"/>
<path d="M13.0835 47.2312L13.8723 45.7999L15.4498 45.7999L16.2385 47.2312L15.4498 48.6624L13.8723 48.6624L13.0835 47.2312Z" fill="url(#paint6_linear_262_496)"/>
<path d="M9.04366 55.7616L9.82191 54.3049L11.4197 54.2821L12.2393 55.7159L11.461 57.1726L9.86322 57.1954L9.04366 55.7616Z" fill="white"/>
<path d="M9.04366 55.7616L9.82191 54.3049L11.4197 54.2821L12.2393 55.7159L11.461 57.1726L9.86322 57.1954L9.04366 55.7616Z" fill="url(#paint7_linear_262_496)"/>
<path d="M5.71904 65.0725L6.25732 63.7318L7.64461 63.5601L8.49363 64.729L7.95535 66.0697L6.56805 66.2415L5.71904 65.0725Z" fill="white"/>
<path d="M5.71904 65.0725L6.25732 63.7318L7.64461 63.5601L8.49363 64.729L7.95535 66.0697L6.56805 66.2415L5.71904 65.0725Z" fill="url(#paint8_linear_262_496)"/>
<path d="M4.46863 74.1852L4.48007 72.8689L5.60006 72.2625L6.70861 72.9723L6.69717 74.2886L5.57718 74.895L4.46863 74.1852Z" fill="white"/>
<path d="M4.46863 74.1852L4.48007 72.8689L5.60006 72.2625L6.70861 72.9723L6.69717 74.2886L5.57718 74.895L4.46863 74.1852Z" fill="url(#paint9_linear_262_496)"/>
<path d="M6.51155 82.0425L6.03341 81.065L6.63737 80.2025L7.71947 80.3176L8.19761 81.2951L7.59365 82.1576L6.51155 82.0425Z" fill="white"/>
<path d="M6.51155 82.0425L6.03341 81.065L6.63737 80.2025L7.71947 80.3176L8.19761 81.2951L7.59365 82.1576L6.51155 82.0425Z" fill="url(#paint10_linear_262_496)"/>
<path d="M10.1018 87.8166L9.49599 86.9898L9.91254 86.0898L10.9349 86.0165L11.5408 86.8433L11.1242 87.7434L10.1018 87.8166Z" fill="white"/>
<path d="M10.1018 87.8166L9.49599 86.9898L9.91254 86.0898L10.9349 86.0165L11.5408 86.8433L11.1242 87.7434L10.1018 87.8166Z" fill="url(#paint11_linear_262_496)"/>
<path d="M13.4878 92.5827L12.6272 92.397L12.3816 91.5813L12.9966 90.9513L13.8572 91.137L14.1028 91.9527L13.4878 92.5827Z" fill="white"/>
<path d="M13.4878 92.5827L12.6272 92.397L12.3816 91.5813L12.9966 90.9513L13.8572 91.137L14.1028 91.9527L13.4878 92.5827Z" fill="url(#paint12_linear_262_496)"/>
<path d="M17.1018 3.59361H15.5247L14.7362 4.88995L15.5247 6.21627H17.1018L17.8903 4.88995L19.1806 4.1665H20.7218L21.497 2.86267L20.7218 1.55884H19.1806L18.4055 2.86267L17.1018 3.59361Z" fill="white"/>
<path d="M17.1018 3.59361H15.5247L14.7362 4.88995L15.5247 6.21627H17.1018L17.8903 4.88995L19.1806 4.1665H20.7218L21.497 2.86267L20.7218 1.55884H19.1806L18.4055 2.86267L17.1018 3.59361Z" fill="url(#paint13_linear_262_496)"/>
<path d="M20.3169 9.2406L18.4793 9.06413L17.4111 10.5313L18.1771 12.211L20.0147 12.3875L21.0863 10.8843L22.6732 10.1606L24.469 10.3331L25.5225 8.85537L24.7695 7.20421L22.9736 7.03175L21.9202 8.50944L20.3169 9.2406Z" fill="white"/>
<path d="M20.3169 9.2406L18.4793 9.06413L17.4111 10.5313L18.1771 12.211L20.0147 12.3875L21.0863 10.8843L22.6732 10.1606L24.469 10.3331L25.5225 8.85537L24.7695 7.20421L22.9736 7.03175L21.9202 8.50944L20.3169 9.2406Z" fill="url(#paint14_linear_262_496)"/>
<path d="M22.4526 15.736L20.4729 14.8087L18.6993 16.0182L18.8872 18.1938L20.8669 19.1211L22.6587 17.8729L24.7158 17.6979L26.6505 18.6041L28.4119 17.3771L28.2271 15.2384L26.2924 14.3322L24.531 15.5592L22.4526 15.736Z" fill="white"/>
<path d="M22.4526 15.736L20.4729 14.8087L18.6993 16.0182L18.8872 18.1938L20.8669 19.1211L22.6587 17.8729L24.7158 17.6979L26.6505 18.6041L28.4119 17.3771L28.2271 15.2384L26.2924 14.3322L24.531 15.5592L22.4526 15.736Z" fill="url(#paint15_linear_262_496)"/>
<path d="M21.9259 23.6062L19.8643 22.145L17.5986 23.1568L17.3658 25.6701L19.4274 27.1313L21.7218 26.0792L24.0978 26.3023L26.1125 27.7303L28.3679 26.6961L28.5967 24.2254L26.582 22.7974L24.3265 23.8316L21.9259 23.6062Z" fill="white"/>
<path d="M21.9259 23.6062L19.8643 22.145L17.5986 23.1568L17.3658 25.6701L19.4274 27.1313L21.7218 26.0792L24.0978 26.3023L26.1125 27.7303L28.3679 26.6961L28.5967 24.2254L26.582 22.7974L24.3265 23.8316L21.9259 23.6062Z" fill="url(#paint16_linear_262_496)"/>
<path d="M5.27241 68.0685L3.30648 66.7096L1.17502 67.6917L0.982936 70.0711L2.94887 71.43L5.10689 70.4095L7.35632 70.594L9.27757 71.922L11.399 70.9188L11.5878 68.5797L9.66658 67.2517L7.54515 68.2549L5.27241 68.0685Z" fill="white"/>
<path d="M5.27241 68.0685L3.30648 66.7096L1.17502 67.6917L0.982936 70.0711L2.94887 71.43L5.10689 70.4095L7.35632 70.594L9.27757 71.922L11.399 70.9188L11.5878 68.5797L9.66658 67.2517L7.54515 68.2549L5.27241 68.0685Z" fill="url(#paint17_linear_262_496)"/>
<path d="M5.04836 76.6791L3.04045 76.0842L1.53372 77.4838L2.02326 79.5175L4.03117 80.1124L5.54953 78.6736L7.47295 78.2132L9.43522 78.7946L10.9278 77.3801L10.4466 75.3809L8.48433 74.7995L6.99171 76.214L5.04836 76.6791Z" fill="white"/>
<path d="M5.04836 76.6791L3.04045 76.0842L1.53372 77.4838L2.02326 79.5175L4.03117 80.1124L5.54953 78.6736L7.47295 78.2132L9.43522 78.7946L10.9278 77.3801L10.4466 75.3809L8.48433 74.7995L6.99171 76.214L5.04836 76.6791Z" fill="url(#paint18_linear_262_496)"/>
<path d="M7.61287 83.6923L5.81275 83.5606L4.80139 85.0162L5.58757 86.6386L7.38769 86.7703L8.40163 85.2795L9.93657 84.5382L11.6958 84.6669L12.6925 83.2015L11.9197 81.6065L10.1605 81.4778L9.16372 82.9433L7.61287 83.6923Z" fill="white"/>
<path d="M7.61287 83.6923L5.81275 83.5606L4.80139 85.0162L5.58757 86.6386L7.38769 86.7703L8.40163 85.2795L9.93657 84.5382L11.6958 84.6669L12.6925 83.2015L11.9197 81.6065L10.1605 81.4778L9.16372 82.9433L7.61287 83.6923Z" fill="url(#paint19_linear_262_496)"/>
<path d="M10.9984 89.1981L9.45727 89.1437L8.6407 90.419L9.3642 91.7789L10.9053 91.8333L11.7229 90.5279L13.0095 89.8455L14.5156 89.8987L15.3194 88.6154L14.6082 87.2786L13.1021 87.2254L12.2983 88.5087L10.9984 89.1981Z" fill="white"/>
<path d="M10.9984 89.1981L9.45727 89.1437L8.6407 90.419L9.3642 91.7789L10.9053 91.8333L11.7229 90.5279L13.0095 89.8455L14.5156 89.8987L15.3194 88.6154L14.6082 87.2786L13.1021 87.2254L12.2983 88.5087L10.9984 89.1981Z" fill="url(#paint20_linear_262_496)"/>
<path d="M7.97171 58.8804L6.16193 56.9274L3.60643 57.4805L2.82252 60.022L4.63231 61.975L7.22599 61.3865L9.62789 62.1308L11.3965 64.0394L13.9462 63.4609L14.7169 60.9625L12.9482 59.0539L10.3985 59.6324L7.97171 58.8804Z" fill="white"/>
<path d="M7.97171 58.8804L6.16193 56.9274L3.60643 57.4805L2.82252 60.022L4.63231 61.975L7.22599 61.3865L9.62789 62.1308L11.3965 64.0394L13.9462 63.4609L14.7169 60.9625L12.9482 59.0539L10.3985 59.6324L7.97171 58.8804Z" fill="url(#paint21_linear_262_496)"/>
<path d="M19.6494 32.1771L17.8238 30.0956L15.1518 30.5978L14.2647 33.2172L16.0903 35.2987L18.803 34.7608L21.2784 35.6028L23.0625 37.637L25.7292 37.1082L26.6013 34.5333L24.8172 32.4991L22.1505 33.0278L19.6494 32.1771Z" fill="white"/>
<path d="M19.6494 32.1771L17.8238 30.0956L15.1518 30.5978L14.2647 33.2172L16.0903 35.2987L18.803 34.7608L21.2784 35.6028L23.0625 37.637L25.7292 37.1082L26.6013 34.5333L24.8172 32.4991L22.1505 33.0278L19.6494 32.1771Z" fill="url(#paint22_linear_262_496)"/>
<path d="M15.5304 41.2772L13.7843 38.8352L10.8474 39.09L9.60877 41.8208L11.3548 44.2628L14.3395 43.974L16.92 45.1484L18.6263 47.5349L21.5604 47.2509L22.778 44.5664L21.0716 42.1799L18.1376 42.4638L15.5304 41.2772Z" fill="white"/>
<path d="M15.5304 41.2772L13.7843 38.8352L10.8474 39.09L9.60877 41.8208L11.3548 44.2628L14.3395 43.974L16.92 45.1484L18.6263 47.5349L21.5604 47.2509L22.778 44.5664L21.0716 42.1799L18.1376 42.4638L15.5304 41.2772Z" fill="url(#paint23_linear_262_496)"/>
<path d="M12.3344 49.1608L10.5883 46.7188L7.65134 46.9735L6.41272 49.7044L8.1588 52.1464L11.1435 51.8575L13.7239 53.0319L15.4303 55.4184L18.3644 55.1345L19.582 52.4499L17.8756 50.0634L14.9415 50.3474L12.3344 49.1608Z" fill="white"/>
<path d="M12.3344 49.1608L10.5883 46.7188L7.65134 46.9735L6.41272 49.7044L8.1588 52.1464L11.1435 51.8575L13.7239 53.0319L15.4303 55.4184L18.3644 55.1345L19.582 52.4499L17.8756 50.0634L14.9415 50.3474L12.3344 49.1608Z" fill="url(#paint24_linear_262_496)"/>
<path d="M3.92572 35.4035L4.97133 34.7998C5.33828 36.4451 6.13609 40.0412 6.39176 41.2628C6.64744 42.4843 6.64034 43.4999 6.60483 43.855C6.58115 44.1983 6.46989 44.9346 6.21421 45.1334C5.95853 45.3323 5.46848 44.4351 5.25542 43.9616L3.5509 37.8892L3.92572 35.4035Z" fill="white"/>
<path d="M3.92572 35.4035L4.97133 34.7998C5.33828 36.4451 6.13609 40.0412 6.39176 41.2628C6.64744 42.4843 6.64034 43.4999 6.60483 43.855C6.58115 44.1983 6.46989 44.9346 6.21421 45.1334C5.95853 45.3323 5.46848 44.4351 5.25542 43.9616L3.5509 37.8892L3.92572 35.4035Z" fill="url(#paint25_linear_262_496)"/>
<path d="M7.7058 37.7836L6.56193 32.5352C6.53566 32.4147 6.38389 32.3767 6.30814 32.474C5.33502 33.7251 5.58383 34.7102 5.93026 36.1501C6.30904 37.7244 7.08791 41.079 7.17314 41.9028C7.25656 42.7092 7.55093 42.6741 7.69657 42.5502C7.70283 42.5448 7.7083 42.5389 7.71331 42.5323C8.52671 41.4753 8.04802 38.9282 7.7058 37.7836Z" fill="white"/>
<path d="M7.7058 37.7836L6.56193 32.5352C6.53566 32.4147 6.38389 32.3767 6.30814 32.474C5.33502 33.7251 5.58383 34.7102 5.93026 36.1501C6.30904 37.7244 7.08791 41.079 7.17314 41.9028C7.25656 42.7092 7.55093 42.6741 7.69657 42.5502C7.70283 42.5448 7.7083 42.5389 7.71331 42.5323C8.52671 41.4753 8.04802 38.9282 7.7058 37.7836Z" fill="url(#paint26_linear_262_496)"/>
<path d="M7.13755 31.2845C7.19083 30.6567 7.47629 30.1061 7.72123 29.8315C7.79131 29.753 7.90593 29.7971 7.92706 29.9003L8.48696 32.6339C9.343 36.4738 9.1725 38.2028 8.90458 38.768C8.85788 38.8666 8.74228 38.836 8.7167 38.73C8.52128 37.9203 7.84357 35.1008 7.42164 33.2021C7.27822 32.5567 7.08165 31.9433 7.13755 31.2845Z" fill="white"/>
<path d="M7.13755 31.2845C7.19083 30.6567 7.47629 30.1061 7.72123 29.8315C7.79131 29.753 7.90593 29.7971 7.92706 29.9003L8.48696 32.6339C9.343 36.4738 9.1725 38.2028 8.90458 38.768C8.85788 38.8666 8.74228 38.836 8.7167 38.73C8.52128 37.9203 7.84357 35.1008 7.42164 33.2021C7.27822 32.5567 7.08165 31.9433 7.13755 31.2845Z" fill="url(#paint27_linear_262_496)"/>
<path d="M12.9613 17.8261C12.6712 15.6377 10.0953 9.24259 8.57193 5.67518C8.39518 5.26127 7.89859 5.10044 7.51972 5.34338C5.84806 6.4153 2.82956 8.58233 2.55661 9.76512C2.30093 10.8731 3.25499 12.4048 3.76398 13.0321L4.61623 14.417C4.90032 14.9023 5.53951 16.3417 5.8236 18.2167C6.17871 20.5604 4.54521 22.8331 4.11908 23.6853C3.77818 24.3671 2.62763 26.1474 2.09497 26.9523C1.49839 27.6909 1.15985 29.3197 1.06516 30.0418L0.745563 36.0786C0.721889 37.1321 0.76687 39.7291 1.13618 41.6893C1.59782 44.1395 1.88191 43.2518 2.34355 42.1864C2.71286 41.3342 2.99458 38.5643 3.08927 37.2859V35.8147C3.08927 35.6628 3.04086 35.5156 2.96424 35.3843C1.90584 33.5715 2.8038 30.9957 3.40887 29.8997L4.79379 26.9523C5.04236 26.2658 5.67446 24.9069 6.21422 24.9637C6.75398 25.0205 5.89462 26.6682 5.39747 27.485L4.29664 29.4026C3.87051 30.2785 3.08217 32.4352 3.19581 33.9124C3.33785 35.759 4.8293 34.1255 5.78809 31.8528C6.74688 29.5801 9.65876 26.2066 10.7596 25.2123C11.8604 24.218 13.3519 20.7734 12.9613 17.8261Z" fill="white"/>
<path d="M12.9613 17.8261C12.6712 15.6377 10.0953 9.24259 8.57193 5.67518C8.39518 5.26127 7.89859 5.10044 7.51972 5.34338C5.84806 6.4153 2.82956 8.58233 2.55661 9.76512C2.30093 10.8731 3.25499 12.4048 3.76398 13.0321L4.61623 14.417C4.90032 14.9023 5.53951 16.3417 5.8236 18.2167C6.17871 20.5604 4.54521 22.8331 4.11908 23.6853C3.77818 24.3671 2.62763 26.1474 2.09497 26.9523C1.49839 27.6909 1.15985 29.3197 1.06516 30.0418L0.745563 36.0786C0.721889 37.1321 0.76687 39.7291 1.13618 41.6893C1.59782 44.1395 1.88191 43.2518 2.34355 42.1864C2.71286 41.3342 2.99458 38.5643 3.08927 37.2859V35.8147C3.08927 35.6628 3.04086 35.5156 2.96424 35.3843C1.90584 33.5715 2.8038 30.9957 3.40887 29.8997L4.79379 26.9523C5.04236 26.2658 5.67446 24.9069 6.21422 24.9637C6.75398 25.0205 5.89462 26.6682 5.39747 27.485L4.29664 29.4026C3.87051 30.2785 3.08217 32.4352 3.19581 33.9124C3.33785 35.759 4.8293 34.1255 5.78809 31.8528C6.74688 29.5801 9.65876 26.2066 10.7596 25.2123C11.8604 24.218 13.3519 20.7734 12.9613 17.8261Z" fill="url(#paint28_linear_262_496)"/>
<path d="M25.3631 58.9754L24.3175 59.5791C23.9505 57.9338 23.1527 54.3377 22.8971 53.1161C22.6414 51.8946 22.6485 50.879 22.684 50.5239C22.7077 50.1806 22.8189 49.4443 23.0746 49.2455C23.3303 49.0466 23.8203 49.9439 24.0334 50.4173L25.7379 56.4897L25.3631 58.9754Z" fill="white"/>
<path d="M25.3631 58.9754L24.3175 59.5791C23.9505 57.9338 23.1527 54.3377 22.8971 53.1161C22.6414 51.8946 22.6485 50.879 22.684 50.5239C22.7077 50.1806 22.8189 49.4443 23.0746 49.2455C23.3303 49.0466 23.8203 49.9439 24.0334 50.4173L25.7379 56.4897L25.3631 58.9754Z" fill="url(#paint29_linear_262_496)"/>
<path d="M21.5833 56.5966L22.7271 61.8449C22.7534 61.9654 22.9052 62.0035 22.9809 61.9061C23.954 60.6551 23.7052 59.6699 23.3588 58.23C22.98 56.6557 22.2012 53.3012 22.1159 52.4773C22.0325 51.6709 21.7381 51.706 21.5925 51.83C21.5862 51.8353 21.5808 51.8413 21.5758 51.8478C20.7623 52.9048 21.241 55.4519 21.5833 56.5966Z" fill="white"/>
<path d="M21.5833 56.5966L22.7271 61.8449C22.7534 61.9654 22.9052 62.0035 22.9809 61.9061C23.954 60.6551 23.7052 59.6699 23.3588 58.23C22.98 56.6557 22.2012 53.3012 22.1159 52.4773C22.0325 51.6709 21.7381 51.706 21.5925 51.83C21.5862 51.8353 21.5808 51.8413 21.5758 51.8478C20.7623 52.9048 21.241 55.4519 21.5833 56.5966Z" fill="url(#paint30_linear_262_496)"/>
<path d="M22.1514 63.0954C22.0981 63.7231 21.8127 64.2738 21.5677 64.5483C21.4976 64.6269 21.383 64.5828 21.3619 64.4796L20.802 61.746C19.9459 57.906 20.1164 56.1771 20.3844 55.6119C20.4311 55.5133 20.5467 55.5439 20.5722 55.6499C20.7677 56.4596 21.4454 59.2791 21.8673 61.1778C22.0107 61.8232 22.2073 62.4366 22.1514 63.0954Z" fill="white"/>
<path d="M22.1514 63.0954C22.0981 63.7231 21.8127 64.2738 21.5677 64.5483C21.4976 64.6269 21.383 64.5828 21.3619 64.4796L20.802 61.746C19.9459 57.906 20.1164 56.1771 20.3844 55.6119C20.4311 55.5133 20.5467 55.5439 20.5722 55.6499C20.7677 56.4596 21.4454 59.2791 21.8673 61.1778C22.0107 61.8232 22.2073 62.4366 22.1514 63.0954Z" fill="url(#paint31_linear_262_496)"/>
<path d="M16.3277 76.5538C16.6177 78.7422 19.1936 85.1373 20.717 88.7047C20.8938 89.1186 21.3903 89.2794 21.7692 89.0365C23.4409 87.9646 26.4594 85.7975 26.7323 84.6148C26.988 83.5068 26.034 81.9751 25.525 81.3478L24.6727 79.9629C24.3886 79.4775 23.7494 78.0382 23.4653 76.1632C23.1102 73.8195 24.7437 71.5468 25.1699 70.6946C25.5108 70.0127 26.6613 68.2325 27.194 67.4276C27.7905 66.6889 28.1291 65.0602 28.2238 64.3381L28.5434 58.3013C28.5671 57.2478 28.5221 54.6508 28.1528 52.6906C27.6911 50.2404 27.407 51.1281 26.9454 52.1935C26.5761 53.0457 26.2944 55.8156 26.1997 57.0939V58.5651C26.1997 58.7171 26.2481 58.8643 26.3247 58.9956C27.3831 60.8084 26.4851 63.3842 25.8801 64.4802L24.4952 67.4276C24.2466 68.1141 23.6145 69.473 23.0747 69.4162C22.535 69.3593 23.3943 67.7116 23.8915 66.8949L24.9923 64.9773C25.4184 64.1014 26.2068 61.9447 26.0931 60.4675C25.9511 58.6209 24.4596 60.2544 23.5008 62.5271C22.5421 64.7998 19.6302 68.1733 18.5293 69.1676C17.4285 70.1619 15.9371 73.6064 16.3277 76.5538Z" fill="white"/>
<path d="M16.3277 76.5538C16.6177 78.7422 19.1936 85.1373 20.717 88.7047C20.8938 89.1186 21.3903 89.2794 21.7692 89.0365C23.4409 87.9646 26.4594 85.7975 26.7323 84.6148C26.988 83.5068 26.034 81.9751 25.525 81.3478L24.6727 79.9629C24.3886 79.4775 23.7494 78.0382 23.4653 76.1632C23.1102 73.8195 24.7437 71.5468 25.1699 70.6946C25.5108 70.0127 26.6613 68.2325 27.194 67.4276C27.7905 66.6889 28.1291 65.0602 28.2238 64.3381L28.5434 58.3013C28.5671 57.2478 28.5221 54.6508 28.1528 52.6906C27.6911 50.2404 27.407 51.1281 26.9454 52.1935C26.5761 53.0457 26.2944 55.8156 26.1997 57.0939V58.5651C26.1997 58.7171 26.2481 58.8643 26.3247 58.9956C27.3831 60.8084 26.4851 63.3842 25.8801 64.4802L24.4952 67.4276C24.2466 68.1141 23.6145 69.473 23.0747 69.4162C22.535 69.3593 23.3943 67.7116 23.8915 66.8949L24.9923 64.9773C25.4184 64.1014 26.2068 61.9447 26.0931 60.4675C25.9511 58.6209 24.4596 60.2544 23.5008 62.5271C22.5421 64.7998 19.6302 68.1733 18.5293 69.1676C17.4285 70.1619 15.9371 73.6064 16.3277 76.5538Z" fill="url(#paint32_linear_262_496)"/>
<defs>
<linearGradient id="paint0_linear_262_496" x1="15.8812" y1="0.35524" x2="16.5916" y2="2.28846" gradientUnits="userSpaceOnUse">
<stop stop-color="#539CD0"/>
<stop offset="1" stop-color="#75C1E5"/>
</linearGradient>
<linearGradient id="paint1_linear_262_496" x1="19.4347" y1="5.73386" x2="20.4723" y2="7.56597" gradientUnits="userSpaceOnUse">
<stop stop-color="#539CD0"/>
<stop offset="1" stop-color="#75C1E5"/>
</linearGradient>
<linearGradient id="paint2_linear_262_496" x1="22.6563" y1="11.7039" x2="23.5797" y2="13.9951" gradientUnits="userSpaceOnUse">
<stop stop-color="#539CD0"/>
<stop offset="1" stop-color="#75C1E5"/>
</linearGradient>
<linearGradient id="paint3_linear_262_496" x1="22.76" y1="20.008" x2="25.0033" y2="21.3031" gradientUnits="userSpaceOnUse">
<stop stop-color="#539CD0"/>
<stop offset="1" stop-color="#75C1E5"/>
</linearGradient>
<linearGradient id="paint4_linear_262_496" x1="20.9952" y1="29.5701" x2="23.7195" y2="29.3527" gradientUnits="userSpaceOnUse">
<stop stop-color="#539CD0"/>
<stop offset="1" stop-color="#75C1E5"/>
</linearGradient>
<linearGradient id="paint5_linear_262_496" x1="16.8396" y1="38.5926" x2="20.1449" y2="38.5926" gradientUnits="userSpaceOnUse">
<stop stop-color="#539CD0"/>
<stop offset="1" stop-color="#75C1E5"/>
</linearGradient>
<linearGradient id="paint6_linear_262_496" x1="13.0835" y1="47.2312" x2="16.2385" y2="47.2312" gradientUnits="userSpaceOnUse">
<stop stop-color="#539CD0"/>
<stop offset="1" stop-color="#75C1E5"/>
</linearGradient>
<linearGradient id="paint7_linear_262_496" x1="9.04366" y1="55.7616" x2="12.2393" y2="55.7159" gradientUnits="userSpaceOnUse">
<stop stop-color="#539CD0"/>
<stop offset="1" stop-color="#75C1E5"/>
</linearGradient>
<linearGradient id="paint8_linear_262_496" x1="5.71904" y1="65.0725" x2="8.49363" y2="64.729" gradientUnits="userSpaceOnUse">
<stop stop-color="#539CD0"/>
<stop offset="1" stop-color="#75C1E5"/>
</linearGradient>
<linearGradient id="paint9_linear_262_496" x1="4.46863" y1="74.1852" x2="6.70861" y2="72.9723" gradientUnits="userSpaceOnUse">
<stop stop-color="#539CD0"/>
<stop offset="1" stop-color="#75C1E5"/>
</linearGradient>
<linearGradient id="paint10_linear_262_496" x1="6.51155" y1="82.0425" x2="7.71947" y2="80.3176" gradientUnits="userSpaceOnUse">
<stop stop-color="#539CD0"/>
<stop offset="1" stop-color="#75C1E5"/>
</linearGradient>
<linearGradient id="paint11_linear_262_496" x1="10.1018" y1="87.8166" x2="10.9349" y2="86.0165" gradientUnits="userSpaceOnUse">
<stop stop-color="#539CD0"/>
<stop offset="1" stop-color="#75C1E5"/>
</linearGradient>
<linearGradient id="paint12_linear_262_496" x1="13.4878" y1="92.5827" x2="12.9966" y2="90.9513" gradientUnits="userSpaceOnUse">
<stop stop-color="#539CD0"/>
<stop offset="1" stop-color="#75C1E5"/>
</linearGradient>
<linearGradient id="paint13_linear_262_496" x1="18.1166" y1="1.55884" x2="18.1166" y2="6.21627" gradientUnits="userSpaceOnUse">
<stop stop-color="#539CD0"/>
<stop offset="1" stop-color="#75C1E5"/>
</linearGradient>
<linearGradient id="paint14_linear_262_496" x1="21.7338" y1="6.91268" x2="21.1972" y2="12.501" gradientUnits="userSpaceOnUse">
<stop stop-color="#539CD0"/>
<stop offset="1" stop-color="#75C1E5"/>
</linearGradient>
<linearGradient id="paint15_linear_262_496" x1="24.9567" y1="13.7065" x2="22.1408" y2="19.7179" gradientUnits="userSpaceOnUse">
<stop stop-color="#539CD0"/>
<stop offset="1" stop-color="#75C1E5"/>
</linearGradient>
<linearGradient id="paint16_linear_262_496" x1="25.191" y1="21.8115" x2="20.7541" y2="28.0716" gradientUnits="userSpaceOnUse">
<stop stop-color="#539CD0"/>
<stop offset="1" stop-color="#75C1E5"/>
</linearGradient>
<linearGradient id="paint17_linear_262_496" x1="8.34017" y1="66.3349" x2="4.21392" y2="72.3044" gradientUnits="userSpaceOnUse">
<stop stop-color="#539CD0"/>
<stop offset="1" stop-color="#75C1E5"/>
</linearGradient>
<linearGradient id="paint18_linear_262_496" x1="7.1296" y1="74.3982" x2="5.32323" y2="80.4952" gradientUnits="userSpaceOnUse">
<stop stop-color="#539CD0"/>
<stop offset="1" stop-color="#75C1E5"/>
</linearGradient>
<linearGradient id="paint19_linear_262_496" x1="8.94593" y1="81.389" x2="8.54604" y2="86.855" gradientUnits="userSpaceOnUse">
<stop stop-color="#539CD0"/>
<stop offset="1" stop-color="#75C1E5"/>
</linearGradient>
<linearGradient id="paint20_linear_262_496" x1="12.0623" y1="87.1887" x2="11.897" y2="91.8683" gradientUnits="userSpaceOnUse">
<stop stop-color="#539CD0"/>
<stop offset="1" stop-color="#75C1E5"/>
</linearGradient>
<linearGradient id="paint21_linear_262_496" x1="11.7272" y1="57.7363" x2="5.79688" y2="63.2317" gradientUnits="userSpaceOnUse">
<stop stop-color="#539CD0"/>
<stop offset="1" stop-color="#75C1E5"/>
</linearGradient>
<linearGradient id="paint22_linear_262_496" x1="23.5855" y1="31.0947" x2="17.265" y2="36.6381" gradientUnits="userSpaceOnUse">
<stop stop-color="#539CD0"/>
<stop offset="1" stop-color="#75C1E5"/>
</linearGradient>
<linearGradient id="paint23_linear_262_496" x1="19.8936" y1="40.5322" x2="12.4784" y2="45.8342" gradientUnits="userSpaceOnUse">
<stop stop-color="#539CD0"/>
<stop offset="1" stop-color="#75C1E5"/>
</linearGradient>
<linearGradient id="paint24_linear_262_496" x1="16.6975" y1="48.4158" x2="9.28238" y2="53.7178" gradientUnits="userSpaceOnUse">
<stop stop-color="#539CD0"/>
<stop offset="1" stop-color="#75C1E5"/>
</linearGradient>
<linearGradient id="paint25_linear_262_496" x1="5.08687" y1="34.7998" x2="5.08687" y2="45.1617" gradientUnits="userSpaceOnUse">
<stop stop-color="#539CD0"/>
<stop offset="1" stop-color="#75C1E5"/>
</linearGradient>
<linearGradient id="paint26_linear_262_496" x1="6.89193" y1="32.2439" x2="6.89193" y2="42.6174" gradientUnits="userSpaceOnUse">
<stop stop-color="#539CD0"/>
<stop offset="1" stop-color="#75C1E5"/>
</linearGradient>
<linearGradient id="paint27_linear_262_496" x1="8.12516" y1="29.6865" x2="8.12516" y2="38.9548" gradientUnits="userSpaceOnUse">
<stop stop-color="#539CD0"/>
<stop offset="1" stop-color="#75C1E5"/>
</linearGradient>
<linearGradient id="paint28_linear_262_496" x1="6.88262" y1="4.90015" x2="6.88262" y2="43.2602" gradientUnits="userSpaceOnUse">
<stop stop-color="#539CD0"/>
<stop offset="1" stop-color="#75C1E5"/>
</linearGradient>
<linearGradient id="paint29_linear_262_496" x1="24.2019" y1="59.5791" x2="24.2019" y2="49.2172" gradientUnits="userSpaceOnUse">
<stop stop-color="#539CD0"/>
<stop offset="1" stop-color="#75C1E5"/>
</linearGradient>
<linearGradient id="paint30_linear_262_496" x1="22.3971" y1="62.1362" x2="22.3971" y2="51.7627" gradientUnits="userSpaceOnUse">
<stop stop-color="#539CD0"/>
<stop offset="1" stop-color="#75C1E5"/>
</linearGradient>
<linearGradient id="paint31_linear_262_496" x1="21.1638" y1="64.6934" x2="21.1638" y2="55.4251" gradientUnits="userSpaceOnUse">
<stop stop-color="#539CD0"/>
<stop offset="1" stop-color="#75C1E5"/>
</linearGradient>
<linearGradient id="paint32_linear_262_496" x1="22.4063" y1="89.4797" x2="22.4063" y2="51.1197" gradientUnits="userSpaceOnUse">
<stop stop-color="#539CD0"/>
<stop offset="1" stop-color="#75C1E5"/>
</linearGradient>
</defs>
</svg>
