<svg width="75" height="75" viewBox="0 0 75 75" fill="none" xmlns="http://www.w3.org/2000/svg">
<path opacity="0.5" d="M37.5001 50.0422L25.8714 62.0826L25.8714 62.0826C24.2061 63.8069 23.3734 64.669 22.6682 64.9674C21.0613 65.6472 19.2789 65.0654 18.4336 63.5852C18.0627 62.9356 17.9471 61.7639 17.7159 59.4205C17.5854 58.0974 17.5201 57.4359 17.322 56.8818C16.8785 55.6414 15.9465 54.6764 14.7485 54.2172C14.2134 54.0121 13.5744 53.9445 12.2967 53.8094L12.2966 53.8094C10.0333 53.57 8.90173 53.4503 8.27434 53.0662C6.84471 52.191 6.2828 50.3454 6.9394 48.6817C7.22755 47.9515 8.06023 47.0894 9.72559 45.365L17.322 37.4997L21.1398 33.6819L37.5001 50.0422L53.8604 33.6819L57.6782 37.4997L65.2746 45.3651C66.9399 47.0894 67.7726 47.9515 68.0608 48.6817C68.7174 50.3454 68.1554 52.191 66.7258 53.0662C66.0984 53.4503 64.9668 53.57 62.7036 53.8094C61.4257 53.9445 60.7868 54.0121 60.2517 54.2172C59.0536 54.6764 58.1217 55.6414 57.6782 56.8818C57.4801 57.4359 57.4148 58.0974 57.2843 59.4205V59.4205C57.0531 61.7639 56.9375 62.9356 56.5666 63.5852C55.7213 65.0654 53.9388 65.6472 52.3319 64.9674C51.6268 64.669 50.7941 63.8069 49.1287 62.0826L37.5001 50.0422Z" fill="white"/>
<path fill-rule="evenodd" clip-rule="evenodd" d="M37.5001 49.8334C49.4202 49.8334 59.0834 40.1702 59.0834 28.2501C59.0834 16.3299 49.4202 6.66675 37.5001 6.66675C25.5799 6.66675 15.9167 16.3299 15.9167 28.2501C15.9167 40.1702 25.5799 49.8334 37.5001 49.8334ZM37.5001 19.0001C36.6242 19.0001 36.0384 20.051 34.8668 22.1528L34.5636 22.6966C34.2307 23.2939 34.0642 23.5925 33.8047 23.7896C33.5451 23.9866 33.2218 24.0597 32.5753 24.206L31.9867 24.3392C29.7114 24.854 28.5738 25.1114 28.3032 25.9817C28.0325 26.8521 28.8081 27.759 30.3592 29.5728L30.7605 30.042C31.2012 30.5574 31.4216 30.8151 31.5208 31.134C31.6199 31.4528 31.5866 31.7966 31.5199 32.4843L31.4593 33.1104C31.2248 35.5304 31.1075 36.7404 31.8161 37.2783C32.5247 37.8162 33.5898 37.3258 35.7201 36.3449L36.2712 36.0912C36.8766 35.8124 37.1792 35.6731 37.5001 35.6731C37.8209 35.6731 38.1236 35.8124 38.729 36.0912L39.2801 36.3449C41.4104 37.3258 42.4755 37.8162 43.1841 37.2783C43.8926 36.7404 43.7754 35.5304 43.5409 33.1104L43.4802 32.4843C43.4136 31.7967 43.3803 31.4528 43.4794 31.134C43.5785 30.8152 43.7989 30.5574 44.2397 30.042L44.641 29.5728C46.1921 27.759 46.9676 26.8521 46.697 25.9817C46.4263 25.1114 45.2887 24.854 43.0135 24.3392L42.4249 24.206C41.7783 24.0597 41.4551 23.9866 41.1955 23.7896C40.9359 23.5925 40.7695 23.2939 40.4365 22.6966L40.1334 22.1528C38.9618 20.051 38.3759 19.0001 37.5001 19.0001Z" fill="white"/>
</svg>
