<svg width="84" height="83" viewBox="0 0 84 83" fill="none" xmlns="http://www.w3.org/2000/svg">
<path d="M64.4217 57.9872C62.2211 58.5133 59.9243 58.7918 57.5625 58.7918C41.3276 58.7918 28.1666 45.6308 28.1666 29.396C28.1666 27.724 28.3062 26.0846 28.5744 24.4888C28.4492 24.6091 28.3199 24.72 28.1837 24.8234C27.2133 25.5601 26.0047 25.8336 23.5874 26.3805L21.3867 26.8784C12.8803 28.8031 8.6271 29.7654 7.61521 33.0194C6.60331 36.2734 9.50286 39.664 15.302 46.4453L16.8023 48.1997C18.4502 50.1267 19.2741 51.0902 19.6448 52.2822C20.0155 53.4742 19.8909 54.7598 19.6418 57.3309L19.415 59.6716C18.5382 68.7193 18.0998 73.2432 20.749 75.2542C23.3982 77.2653 27.3804 75.4317 35.3449 71.7646L37.4055 70.8159C39.6688 69.7738 40.8004 69.2527 42 69.2527C43.1995 69.2527 44.3311 69.7738 46.5944 70.8159L48.6549 71.7646C56.6195 75.4317 60.6017 77.2653 63.2509 75.2542C65.9001 73.2432 65.4617 68.7193 64.585 59.6716L64.4217 57.9872Z" fill="white"/>
<path opacity="0.5" d="M32.1546 18.704L31.0214 20.7371C29.7766 22.9701 29.1542 24.0866 28.1837 24.8233C28.3199 24.7199 28.4492 24.6091 28.5744 24.4887C28.3062 26.0845 28.1666 27.7239 28.1666 29.3959C28.1666 45.6308 41.3276 58.7918 57.5625 58.7918C59.9243 58.7918 62.2211 58.5132 64.4217 57.9872L64.3581 57.3308C64.109 54.7597 63.9844 53.4742 64.3551 52.2822C64.7258 51.0902 65.5497 50.1267 67.1976 48.1996L68.698 46.4452C74.497 39.664 77.3966 36.2733 76.3847 33.0193C75.3728 29.7653 71.1196 28.803 62.6132 26.8783L60.4125 26.3804C57.9953 25.8335 56.7866 25.56 55.8162 24.8233C54.8458 24.0866 54.2234 22.9701 52.9786 20.7371L51.8453 18.704C47.4648 10.8458 45.2745 6.91675 42 6.91675C38.7254 6.91675 36.5351 10.8459 32.1546 18.704Z" fill="white"/>
</svg>
