<svg width="51" height="50" viewBox="0 0 51 50" fill="none" xmlns="http://www.w3.org/2000/svg">
<rect x="0.225098" width="50" height="50" rx="10" fill="white"/>
<rect x="0.225098" width="50" height="50" rx="10" fill="url(#paint0_linear_340_854)"/>
<path d="M38.7752 12.1194C37.7593 11.4089 36.4801 11.3025 35.3578 11.8371L11.5096 24.3994C9.72044 25.3417 9.82545 27.9191 11.6678 28.7496C12.0619 28.9269 12.4056 29.0605 12.6742 29.1342L15.5979 29.8651C16.6057 30.1187 17.6858 29.9319 18.5531 29.3537L30.9463 19.8365C31.2286 19.621 31.6268 19.6551 31.864 19.917C32.1041 20.1761 32.1041 20.5756 31.8654 20.8375L22.9414 30.6138C22.5432 31.0147 22.3591 31.5356 22.4178 32.0661C22.4764 32.5966 22.7682 33.0643 23.2182 33.3507L23.266 33.3752L34.1005 38.5341C35.7601 39.325 37.7034 38.2395 37.9025 36.4122L40.2085 15.2327C40.3285 13.9958 39.7939 12.8326 38.7752 12.1194Z" fill="white"/>
<defs>
<linearGradient id="paint0_linear_340_854" x1="25.2251" y1="0" x2="25.2251" y2="50" gradientUnits="userSpaceOnUse">
<stop stop-color="#539CD0"/>
<stop offset="1" stop-color="#75C1E5"/>
</linearGradient>
</defs>
</svg>
