<svg width="85" height="85" viewBox="0 0 85 85" fill="none" xmlns="http://www.w3.org/2000/svg">
<path fill-rule="evenodd" clip-rule="evenodd" d="M6.86348 18.953C8.26994 18.6014 9.69514 19.4565 10.0468 20.863L11.3836 26.2105C13.518 34.748 20.2439 41.3672 28.796 43.3746H56.5001C63.8188 43.3746 69.9788 48.8525 70.834 56.121L73.1071 75.4429C73.2765 76.8828 72.2466 78.1873 70.8068 78.3567C69.367 78.5261 68.0625 77.4962 67.8931 76.0564L65.6199 56.7344C65.0759 52.1099 61.1566 48.6246 56.5001 48.6246H28.212L27.9307 48.5621C17.3075 46.2014 8.92976 38.0413 6.29039 27.4838L4.95351 22.1363C4.60189 20.7298 5.45701 19.3046 6.86348 18.953Z" fill="white"/>
<path opacity="0.5" d="M28.5 48.625V63.5C28.5 70.0997 28.5 73.3995 30.5503 75.4497C32.6005 77.5 35.9003 77.5 42.5 77.5C49.0997 77.5 52.3995 77.5 54.4497 75.4497C56.5 73.3995 56.5 70.0997 56.5 63.5V48.625H28.5Z" fill="white"/>
<circle cx="42.5" cy="21.5" r="14" fill="white"/>
</svg>
